{"glyphs":{"あ":{"ha":1389,"x_min":178,"x_max":1243,"o":"m 599 -28 q 891 43 768 -7 q 1081 172 1014 93 q 1147 358 1147 250 q 1110 495 1147 433 q 1006 594 1074 557 q 843 632 938 632 q 693 613 763 632 q 549 556 624 594 q 394 442 461 507 q 290 312 326 376 q 253 194 253 247 q 265 154 253 167 q 300 142 276 142 q 387 161 340 142 q 481 213 433 181 q 567 283 528 246 q 645 367 606 321 q 721 462 685 413 q 785 558 757 511 q 828 643 813 606 q 831 707 846 686 q 767 754 815 728 l 781 778 q 849 755 818 768 q 901 718 881 742 q 915 691 913 704 q 910 658 917 678 q 840 522 888 599 q 731 369 793 446 q 600 224 669 292 q 431 99 515 142 q 275 56 347 56 q 203 82 229 56 q 178 164 178 108 q 212 303 178 236 q 301 429 246 371 q 421 533 356 488 q 549 608 486 579 q 684 655 606 636 q 850 674 763 674 q 1064 624 976 674 q 1197 497 1151 575 q 1243 333 1243 419 q 1194 163 1243 235 q 1060 42 1146 90 q 857 -31 974 -6 q 604 -58 740 -56 l 599 -28 m 624 118 q 578 153 599 118 q 542 242 557 188 q 521 362 528 297 q 514 485 514 426 q 524 624 514 547 q 544 778 533 701 q 565 913 556 854 q 574 999 574 972 q 569 1024 574 1017 q 549 1036 564 1031 q 509 1047 529 1043 q 467 1051 489 1050 l 468 1081 q 506 1089 486 1085 q 538 1093 525 1093 q 612 1081 578 1093 q 667 1051 646 1068 q 688 1019 688 1033 q 681 996 688 1006 q 665 974 674 986 q 650 938 657 963 q 628 847 640 901 q 605 732 615 793 q 588 610 594 671 q 581 501 581 550 q 594 369 581 424 q 624 276 607 314 q 653 210 640 238 q 665 156 665 182 q 653 127 665 136 q 624 118 642 118 m 419 786 q 341 797 375 786 q 278 833 307 807 q 219 904 250 858 l 242 926 q 308 882 279 897 q 366 861 338 867 q 429 856 394 856 q 513 860 471 856 q 594 869 554 864 q 778 914 704 888 q 894 960 853 940 q 949 979 936 979 q 1003 968 985 979 q 1022 940 1022 957 q 1015 917 1022 926 q 990 900 1008 908 q 924 876 967 890 q 825 847 881 863 q 708 819 769 832 q 588 799 647 807 q 503 790 547 793 q 419 786 460 786 z "},"い":{"ha":1389,"x_min":118,"x_max":1268,"o":"m 478 54 q 392 105 436 72 q 310 190 349 138 q 247 315 271 242 q 221 488 222 389 q 222 631 218 563 q 226 746 226 699 q 220 810 226 783 q 190 864 214 838 q 118 925 167 890 l 131 947 q 177 938 156 943 q 218 925 199 933 q 272 891 243 914 q 320 840 300 868 q 340 782 340 811 q 333 731 340 760 q 317 667 326 701 q 300 588 307 632 q 293 490 293 544 q 315 342 293 403 q 370 244 338 281 q 432 193 403 208 q 460 187 447 185 q 481 203 472 189 q 548 322 514 251 q 611 457 582 392 l 647 440 q 613 344 632 394 q 581 253 594 294 q 563 189 567 211 q 559 142 556 158 q 567 116 563 126 q 572 90 572 106 q 547 50 572 63 q 478 54 521 38 m 1213 286 q 1185 299 1197 286 q 1168 335 1172 311 q 1157 412 1164 365 q 1135 511 1150 458 q 1089 613 1119 564 q 998 715 1053 675 q 874 781 943 754 l 886 814 q 1042 761 985 796 q 1147 676 1100 726 q 1214 581 1188 636 q 1254 468 1240 525 q 1268 364 1268 411 q 1254 305 1268 324 q 1213 286 1240 286 z "},"う":{"ha":1389,"x_min":308,"x_max":1051,"o":"m 426 -56 q 816 133 681 7 q 951 465 951 260 q 908 637 951 578 q 800 696 865 696 q 724 683 765 696 q 644 649 683 669 q 573 608 606 629 q 521 575 540 588 q 477 543 497 560 q 431 526 457 526 q 385 542 408 526 q 344 578 363 557 q 318 618 326 600 q 309 663 308 640 q 313 714 310 686 l 338 722 q 362 674 350 694 q 388 644 374 654 q 417 635 401 635 q 483 652 440 635 q 580 692 525 669 q 694 731 635 714 q 808 747 753 747 q 985 667 918 747 q 1051 449 1051 588 q 976 187 1051 296 q 763 10 900 78 q 438 -87 625 -58 l 426 -56 m 532 882 q 592 915 563 899 q 647 947 621 931 q 693 975 674 963 q 628 988 671 979 q 538 1023 586 997 q 446 1100 489 1049 l 463 1122 q 601 1057 536 1072 q 725 1042 665 1042 q 788 1047 756 1042 q 836 1053 819 1053 q 887 1046 863 1053 q 928 1026 911 1039 q 944 993 944 1013 q 933 972 944 979 q 897 964 921 965 q 854 960 882 963 q 797 950 826 958 q 717 923 763 940 q 625 888 671 906 q 544 856 579 869 l 532 882 z "},"え":{"ha":1389,"x_min":199,"x_max":1261,"o":"m 976 -39 q 860 -26 901 -39 q 797 20 818 -12 q 763 110 775 53 q 749 184 757 143 q 731 263 740 225 q 708 309 725 290 q 656 328 690 328 q 591 316 622 328 q 529 276 560 304 q 440 191 482 239 q 363 96 399 143 q 299 14 326 49 q 273 -11 286 -1 q 240 -21 260 -21 q 211 -8 224 -21 q 199 24 199 4 q 208 67 199 49 q 233 101 218 85 q 267 136 249 118 q 340 205 296 164 q 429 289 383 246 q 511 367 475 332 q 622 476 564 418 q 730 585 679 533 q 810 671 781 638 q 817 696 824 688 q 790 699 810 704 q 708 678 758 693 q 605 645 658 663 q 511 611 551 628 q 468 584 483 597 q 431 571 453 571 q 376 586 403 571 q 331 624 349 601 q 306 665 313 646 q 300 703 299 683 q 304 743 301 722 l 326 749 q 362 692 342 714 q 403 671 382 671 q 472 681 424 671 q 580 703 521 690 q 692 730 639 717 q 775 751 744 743 q 815 769 803 758 q 843 781 828 781 q 879 772 858 781 q 920 750 900 764 q 953 721 940 736 q 967 690 967 706 q 953 667 967 676 q 919 646 940 657 q 874 617 899 635 q 817 570 853 600 q 742 503 782 540 q 663 431 701 467 q 597 368 625 396 q 641 374 618 374 q 681 375 664 375 q 747 358 717 375 q 792 301 778 340 q 814 228 803 268 q 835 149 825 188 q 871 73 849 94 q 943 51 893 51 q 1040 56 1003 51 q 1101 65 1078 60 q 1141 75 1124 71 q 1178 79 1158 79 q 1240 65 1218 79 q 1261 29 1261 51 q 1233 -5 1261 8 q 1159 -26 1204 -18 q 1065 -36 1114 -33 q 976 -39 1015 -39 m 535 888 q 624 925 576 906 q 704 960 672 944 q 640 978 681 965 q 554 1022 600 992 q 465 1104 508 1051 l 485 1124 q 617 1051 554 1076 q 749 1022 681 1025 q 794 1024 778 1021 q 828 1028 810 1028 q 870 1019 849 1028 q 906 996 892 1011 q 921 960 921 981 q 910 936 921 947 q 872 925 899 925 q 833 925 853 925 q 786 922 814 925 q 710 908 756 921 q 620 882 665 896 q 547 858 575 868 l 535 888 z "},"か":{"ha":1389,"x_min":119,"x_max":1293,"o":"m 161 -29 q 133 -15 147 -29 q 119 22 119 -1 q 124 55 119 40 q 142 86 129 69 q 215 186 181 136 q 284 296 249 236 q 358 429 319 356 q 415 547 386 483 q 471 676 444 611 q 518 799 497 742 q 551 899 539 857 q 564 954 564 940 q 560 976 564 967 q 542 990 557 985 q 494 1003 526 999 q 436 1011 461 1008 l 436 1040 q 476 1053 453 1047 q 526 1058 499 1058 q 574 1051 547 1058 q 627 1030 601 1043 q 669 1003 653 1017 q 686 975 686 989 q 678 948 686 960 q 661 924 671 936 q 643 894 651 913 q 606 803 629 860 q 552 676 582 746 q 489 533 522 606 q 424 392 456 460 q 367 281 394 335 q 315 178 340 226 q 265 88 289 129 q 218 14 240 47 q 190 -19 203 -10 q 161 -29 176 -29 m 561 -14 q 514 1 526 -14 q 488 46 501 15 q 476 68 483 57 q 449 98 468 79 q 390 150 429 117 l 407 172 q 506 113 463 138 q 574 89 550 89 q 633 103 607 89 q 685 161 658 118 q 719 231 703 188 q 751 328 736 275 q 774 442 765 382 q 782 560 782 501 q 760 670 782 636 q 681 704 739 704 q 600 694 647 704 q 502 670 553 685 q 407 640 451 656 q 336 614 363 624 q 269 586 292 597 q 222 575 247 575 q 184 590 206 575 q 146 628 163 606 q 124 672 129 650 q 121 711 119 689 q 126 753 122 733 l 154 757 q 178 702 165 729 q 219 675 190 675 q 275 682 239 675 q 356 699 311 689 q 448 719 401 708 q 535 739 494 731 q 613 753 564 746 q 697 760 663 760 q 818 710 775 760 q 861 539 861 661 q 845 367 861 456 q 800 202 829 279 q 729 74 771 125 q 656 10 699 35 q 561 -14 614 -14 m 1235 286 q 1205 296 1214 286 q 1187 317 1196 306 q 1157 333 1178 329 q 1113 335 1143 336 q 1049 332 1082 335 q 993 326 1017 329 l 985 360 q 1045 372 1011 364 q 1112 387 1079 379 q 1163 401 1144 394 q 1190 422 1185 410 q 1194 461 1196 433 q 1181 531 1193 489 q 1138 617 1168 572 q 1065 685 1108 657 q 953 725 1021 713 l 969 758 q 1110 717 1054 746 q 1207 643 1165 689 q 1269 535 1246 601 q 1293 389 1293 469 q 1279 317 1293 347 q 1235 286 1265 288 z "},"が":{"ha":1389,"x_min":99,"x_max":1340,"o":"m 1179 778 q 1149 798 1163 778 q 1114 844 1135 818 q 1063 903 1093 871 q 986 967 1032 935 l 1006 990 q 1098 946 1058 969 q 1164 897 1138 922 q 1201 854 1190 874 q 1213 815 1213 835 q 1203 788 1213 797 q 1179 778 1194 778 m 140 -37 q 113 -24 126 -37 q 99 14 99 -10 q 103 46 99 32 q 122 78 108 60 q 194 178 160 128 q 263 288 228 228 q 338 421 299 347 q 394 539 365 475 q 450 668 424 603 q 497 791 476 733 q 531 890 518 849 q 543 946 543 931 q 540 967 543 958 q 521 982 536 976 q 473 995 506 990 q 415 1003 440 1000 l 415 1032 q 456 1044 433 1039 q 507 1050 478 1050 q 554 1042 526 1050 q 607 1022 582 1035 q 649 994 632 1008 q 665 967 665 981 q 658 940 665 951 q 640 916 650 928 q 622 886 631 904 q 585 794 608 851 q 531 667 561 738 q 469 524 501 597 q 403 383 436 451 q 347 272 375 326 q 294 169 319 218 q 244 80 268 121 q 197 6 219 39 q 169 -28 182 -18 q 140 -37 157 -37 m 540 -22 q 493 -8 506 -22 q 468 38 481 7 q 455 60 463 49 q 428 90 447 71 q 371 142 408 108 l 386 164 q 486 105 442 129 q 554 81 531 81 q 612 95 586 81 q 664 153 638 110 q 699 223 682 179 q 730 320 715 267 q 753 433 744 374 q 761 551 761 493 q 740 662 761 628 q 661 696 718 696 q 580 686 628 696 q 481 662 532 676 q 387 631 431 647 q 317 606 343 615 q 249 577 271 588 q 203 567 228 567 q 163 582 185 567 q 125 619 142 597 q 103 664 108 642 q 101 703 100 681 q 107 744 101 725 l 133 749 q 158 694 146 721 q 199 667 169 667 q 254 674 218 667 q 335 690 290 681 q 427 711 381 700 q 514 731 474 722 q 592 744 543 738 q 678 751 642 751 q 797 702 754 751 q 840 531 840 653 q 824 359 840 447 q 779 194 808 271 q 708 65 750 117 q 635 2 678 26 q 540 -22 593 -22 m 1214 278 q 1185 288 1194 278 q 1166 309 1175 297 q 1136 325 1157 321 q 1092 327 1122 328 q 1028 324 1061 326 q 972 318 996 321 l 965 350 q 1025 363 990 356 q 1092 378 1060 371 q 1142 393 1124 386 q 1170 413 1164 400 q 1174 453 1176 425 q 1160 522 1172 481 q 1117 607 1149 564 q 1044 676 1088 649 q 932 717 1001 704 l 949 750 q 1090 709 1033 738 q 1186 633 1146 681 q 1249 527 1225 593 q 1272 381 1272 461 q 1258 309 1272 339 q 1214 278 1244 279 m 1308 878 q 1278 898 1292 878 q 1242 944 1264 918 q 1189 997 1218 971 q 1113 1056 1160 1024 l 1131 1081 q 1224 1041 1183 1061 q 1289 999 1264 1021 q 1328 956 1317 976 q 1340 913 1340 935 q 1332 887 1340 896 q 1308 878 1324 878 z "},"き":{"ha":1389,"x_min":250,"x_max":1164,"o":"m 683 -67 q 553 -55 619 -67 q 431 -17 486 -43 q 343 51 376 10 q 310 154 310 93 q 348 261 310 211 q 464 343 386 311 q 658 375 542 375 q 827 361 753 375 q 950 335 901 347 q 965 334 964 331 q 960 347 967 338 q 891 444 939 378 q 799 606 843 511 q 745 722 772 660 q 692 852 718 785 q 642 988 667 919 q 621 1023 635 1011 q 575 1038 607 1035 q 540 1038 557 1038 q 504 1036 522 1039 l 499 1063 q 555 1090 529 1081 q 613 1099 581 1099 q 683 1088 650 1099 q 722 1049 717 1078 q 732 992 726 1022 q 744 928 738 961 q 761 864 751 896 q 786 790 772 829 q 819 708 800 750 q 863 619 839 665 q 948 482 908 535 q 1018 397 988 429 q 1065 347 1049 365 q 1081 314 1081 328 q 1074 269 1081 293 q 1053 228 1067 244 q 1024 211 1040 211 q 992 218 1007 211 q 960 238 978 225 q 913 264 942 250 q 844 292 888 278 q 748 316 801 306 q 638 326 694 326 q 505 307 564 326 q 412 253 446 288 q 378 172 378 218 q 407 94 378 124 q 483 51 436 65 q 583 31 529 36 q 686 26 638 26 q 753 28 726 26 q 801 34 781 31 q 839 40 821 38 q 878 42 857 42 q 929 29 910 42 q 949 -3 949 17 q 932 -30 949 -18 q 883 -50 915 -42 q 800 -62 850 -58 q 683 -67 750 -67 m 490 513 q 372 533 417 513 q 312 586 326 553 q 316 660 297 619 q 392 739 335 700 l 415 718 q 369 624 351 661 q 501 586 386 586 q 675 601 590 586 q 836 638 760 615 q 972 686 913 661 q 1040 717 1018 704 q 1075 735 1063 729 q 1099 742 1088 742 q 1131 740 1117 743 q 1155 729 1146 738 q 1164 707 1164 721 q 1158 685 1164 696 q 1132 664 1151 675 q 1029 614 1093 640 q 881 565 965 588 q 699 527 797 542 q 490 513 600 513 m 494 776 q 406 784 447 776 q 325 820 364 792 q 250 908 286 849 l 269 924 q 333 881 303 899 q 399 855 363 864 q 489 846 435 846 q 563 852 521 846 q 651 868 606 858 q 735 889 697 878 q 862 933 814 911 q 936 969 910 954 q 974 985 963 985 q 1005 981 989 985 q 1032 971 1021 978 q 1043 950 1043 964 q 1035 930 1043 940 q 1013 910 1028 919 q 938 875 993 897 q 808 830 883 853 q 650 792 732 807 q 494 776 568 776 z "},"く":{"ha":1389,"x_min":378,"x_max":933,"o":"m 881 -85 q 851 -74 864 -85 q 832 -51 839 -64 q 808 -3 821 -31 q 765 69 794 25 q 637 223 717 143 q 432 411 557 303 q 392 456 406 433 q 378 500 378 478 q 388 537 378 518 q 414 574 397 556 q 469 635 435 599 q 545 713 504 671 q 626 797 586 756 q 700 874 667 839 q 753 933 733 910 q 778 967 771 954 q 785 992 785 979 q 769 1030 785 1008 q 708 1081 753 1051 l 725 1107 q 770 1096 750 1101 q 811 1078 790 1090 q 858 1044 835 1065 q 896 999 881 1022 q 911 960 911 976 q 903 935 911 946 q 879 914 894 925 q 839 883 864 903 q 757 813 806 856 q 658 726 708 771 q 567 642 608 681 q 504 581 526 603 q 465 535 475 550 q 456 508 456 521 q 467 481 456 494 q 503 449 479 467 q 638 340 574 392 q 760 235 703 289 q 865 119 817 182 q 914 44 894 82 q 933 -25 933 6 q 928 -56 933 -43 q 910 -77 922 -69 q 881 -85 899 -85 z "},"け":{"ha":1389,"x_min":201,"x_max":1274,"o":"m 664 -58 q 824 50 758 -8 q 929 208 890 108 q 958 315 950 256 q 969 438 967 374 q 968 565 971 503 q 964 679 965 628 q 960 777 963 722 q 953 880 957 832 q 947 951 950 928 q 938 983 946 974 q 915 996 931 992 q 873 1005 899 1001 q 824 1010 847 1008 l 821 1039 q 875 1056 844 1049 q 924 1063 906 1063 q 983 1052 950 1063 q 1039 1025 1015 1042 q 1063 990 1063 1008 q 1052 952 1063 974 q 1042 893 1042 931 q 1041 838 1040 872 q 1044 766 1042 804 q 1047 690 1046 728 q 1053 567 1050 636 q 1056 426 1057 499 q 1044 286 1054 353 q 1008 168 1033 219 q 928 52 976 100 q 817 -29 879 4 q 681 -87 754 -62 l 664 -58 m 353 -6 q 316 9 332 -6 q 286 44 300 24 q 229 173 257 89 q 201 393 201 257 q 215 530 201 460 q 247 667 229 600 q 279 790 265 735 q 293 882 293 846 q 272 956 293 921 q 210 1032 250 990 l 229 1053 q 271 1033 254 1043 q 303 1013 288 1024 q 341 977 318 1001 q 381 922 364 953 q 399 860 399 890 q 385 808 399 836 q 357 746 371 779 q 316 644 338 701 q 280 524 294 588 q 265 401 265 461 q 274 303 265 343 q 294 240 283 264 q 311 224 303 224 q 328 240 319 224 q 351 289 336 256 q 385 365 367 322 q 421 452 403 408 q 454 532 439 496 l 485 517 q 458 439 472 481 q 429 356 443 397 q 404 282 415 315 q 388 232 393 249 q 377 184 382 208 q 372 138 372 160 q 377 102 372 117 q 388 72 382 88 q 393 32 393 56 q 381 4 393 14 q 353 -6 369 -6 m 803 633 q 722 645 761 633 q 645 685 682 657 q 572 760 608 713 l 590 785 q 698 727 649 746 q 806 708 747 708 q 917 719 857 708 q 1033 745 978 729 q 1124 775 1088 761 q 1179 802 1164 792 q 1203 813 1194 813 q 1249 801 1225 813 q 1274 769 1274 790 q 1265 743 1274 754 q 1235 722 1256 732 q 1158 693 1204 708 q 1055 664 1113 678 q 933 642 997 650 q 803 633 869 633 z "},"こ":{"ha":1389,"x_min":288,"x_max":1151,"o":"m 714 -1 q 494 28 581 -1 q 359 113 407 58 q 299 242 311 167 q 306 408 288 317 l 343 408 q 354 285 343 342 q 401 184 365 228 q 508 117 436 140 q 699 93 579 93 q 896 106 819 93 q 1015 133 972 119 q 1075 146 1057 146 q 1110 140 1093 146 q 1140 124 1128 135 q 1151 97 1151 113 q 1139 67 1151 78 q 1094 44 1126 56 q 953 14 1047 29 q 714 -1 860 -1 m 524 678 q 634 750 575 713 q 731 813 693 788 q 725 828 751 826 q 580 833 643 826 q 464 867 517 840 q 360 949 411 893 l 381 974 q 473 925 431 942 q 559 903 515 908 q 657 897 603 897 q 759 901 719 897 q 824 912 799 906 q 869 922 850 918 q 908 926 888 926 q 949 922 926 926 q 990 909 971 917 q 1020 890 1008 901 q 1032 868 1032 879 q 983 826 1032 836 q 921 814 956 821 q 833 788 886 807 q 749 751 800 775 q 644 701 699 728 q 542 650 590 675 l 524 678 z "},"さ":{"ha":1389,"x_min":201,"x_max":1117,"o":"m 732 -50 q 566 -35 646 -50 q 424 10 486 -21 q 325 92 361 42 q 289 213 289 142 q 338 347 289 288 q 472 440 388 406 q 663 475 557 475 q 840 458 761 475 q 965 425 918 440 q 972 435 986 421 q 896 531 935 479 q 819 638 857 582 q 744 751 781 693 q 702 830 722 790 q 663 907 682 869 q 624 972 643 944 q 576 1002 606 1000 q 486 1004 546 1004 l 481 1031 q 545 1057 515 1049 q 597 1065 575 1065 q 671 1054 636 1065 q 711 1024 706 1043 q 735 951 724 989 q 765 869 747 913 q 810 775 782 825 q 885 657 843 715 q 974 546 926 599 q 1069 447 1021 493 q 1104 410 1094 424 q 1115 379 1114 396 q 1110 338 1117 360 q 1092 302 1104 317 q 1065 288 1081 288 q 1025 301 1043 288 q 976 331 1007 314 q 884 376 936 354 q 769 410 832 397 q 636 424 707 424 q 496 397 558 424 q 397 326 433 371 q 360 224 360 281 q 449 94 360 144 q 700 43 538 43 q 788 47 753 43 q 849 55 824 51 q 900 58 875 58 q 952 47 932 58 q 972 13 972 35 q 917 -32 972 -14 q 732 -50 863 -50 m 461 674 q 351 690 394 674 q 274 740 308 706 q 201 828 240 774 l 226 850 q 301 794 269 817 q 369 763 332 772 q 461 753 407 753 q 560 761 504 753 q 670 783 615 769 q 767 813 725 797 q 901 869 851 842 q 976 915 950 896 q 1024 946 1003 935 q 1069 952 1044 954 q 1106 936 1094 950 q 1110 908 1115 924 q 1090 881 1106 893 q 1024 837 1068 863 q 922 785 979 811 q 801 739 864 760 q 700 710 760 725 q 578 684 640 694 q 461 674 515 674 z "},"し":{"ha":1389,"x_min":300,"x_max":1228,"o":"m 671 -54 q 515 -22 578 -54 q 420 83 451 11 q 389 274 389 156 q 392 413 389 339 q 401 563 396 488 q 410 704 406 638 q 419 821 415 771 q 422 896 422 871 q 415 949 422 933 q 390 975 408 965 q 350 992 374 985 q 300 1004 326 1000 l 300 1033 q 350 1042 328 1039 q 390 1043 372 1044 q 443 1031 415 1043 q 495 1000 471 1018 q 535 963 519 982 q 551 931 551 944 q 544 904 551 915 q 528 876 536 893 q 513 826 519 860 q 492 669 503 761 q 474 477 481 578 q 467 282 467 376 q 486 141 467 194 q 551 63 506 88 q 671 39 596 39 q 841 65 761 39 q 989 133 921 90 q 1109 228 1057 175 q 1197 336 1161 281 l 1228 315 q 1132 166 1189 233 q 1003 49 1075 99 q 848 -27 932 0 q 671 -54 764 -54 z "},"じ":{"ha":1389,"x_min":279,"x_max":1208,"o":"m 1074 742 q 1041 760 1056 742 q 1003 808 1026 778 q 941 872 978 839 q 853 938 904 906 l 871 961 q 974 920 932 943 q 1042 876 1015 897 q 1106 775 1106 826 q 1097 751 1106 760 q 1074 742 1089 742 m 936 622 q 904 641 919 622 q 865 689 889 660 q 809 753 840 721 q 725 822 778 786 l 743 846 q 844 799 801 825 q 913 751 886 774 q 969 654 974 700 q 960 630 969 638 q 936 622 951 622 m 651 -60 q 495 -27 558 -60 q 401 78 432 6 q 369 268 369 150 q 372 408 369 333 q 381 557 375 482 q 391 699 386 632 q 399 815 396 765 q 401 890 401 865 q 395 944 401 928 q 369 969 389 960 q 331 987 354 979 q 279 1000 307 994 l 279 1028 q 329 1036 307 1033 q 371 1038 351 1039 q 423 1025 396 1038 q 475 995 450 1013 q 516 958 500 978 q 532 925 532 939 q 524 899 532 910 q 508 871 517 888 q 493 821 500 854 q 472 664 482 756 q 454 472 461 572 q 447 276 447 371 q 467 135 447 189 q 531 58 486 82 q 651 33 576 33 q 821 59 740 33 q 969 127 901 85 q 1089 222 1036 169 q 1176 331 1142 275 l 1208 310 q 1113 160 1169 228 q 984 44 1056 93 q 828 -33 913 -6 q 651 -60 743 -60 z "},"そ":{"ha":1389,"x_min":160,"x_max":1219,"o":"m 932 -67 q 851 -62 899 -67 q 763 -47 804 -57 q 645 0 700 -32 q 558 83 590 32 q 525 208 525 135 q 548 326 525 275 q 605 415 571 376 q 672 481 639 453 q 680 494 682 490 q 665 494 678 499 q 510 443 589 472 q 378 385 431 414 q 307 344 335 363 q 260 315 279 325 q 219 304 240 304 q 192 313 207 304 q 169 334 178 321 q 160 363 160 347 q 168 392 160 381 q 194 410 176 403 q 253 428 221 418 q 314 453 285 439 q 394 501 357 474 q 476 574 432 529 q 540 635 503 599 q 619 717 576 672 q 703 808 663 761 q 776 894 743 854 q 825 965 808 935 q 830 982 833 979 q 814 981 826 985 q 738 959 779 972 q 656 932 696 946 q 585 906 617 918 q 539 883 556 893 q 510 867 522 874 q 482 860 499 860 q 450 870 469 860 q 412 898 431 881 q 380 937 393 915 q 365 979 367 958 q 367 1013 364 993 q 374 1047 369 1032 l 393 1053 q 417 1010 406 1031 q 442 976 429 989 q 468 963 456 963 q 528 970 488 963 q 618 988 569 978 q 710 1010 667 999 q 778 1028 754 1022 q 813 1044 801 1036 q 831 1057 824 1051 q 851 1063 839 1063 q 885 1052 864 1063 q 926 1026 906 1042 q 959 994 946 1011 q 972 963 972 978 q 963 942 972 949 q 937 927 953 935 q 903 900 921 919 q 817 817 857 856 q 738 742 776 778 q 658 669 699 706 q 572 592 617 632 q 478 504 528 553 q 475 497 474 500 q 482 494 476 493 q 594 526 533 508 q 717 562 656 544 q 831 594 778 579 q 918 617 883 608 q 1038 644 993 635 q 1111 654 1082 654 q 1163 645 1138 654 q 1203 622 1188 636 q 1219 590 1219 608 q 1203 563 1219 574 q 1149 553 1188 553 q 1099 554 1126 553 q 1028 553 1071 556 q 910 538 969 550 q 801 508 850 526 q 722 465 753 489 q 659 408 689 440 q 610 331 629 375 q 592 229 592 288 q 651 101 593 146 q 803 43 708 56 q 898 38 858 35 q 963 36 938 40 q 1001 14 982 32 q 1019 -24 1019 -4 q 999 -56 1019 -46 q 932 -67 978 -67 z "},"ぞ":{"ha":1389,"x_min":135,"x_max":1347,"o":"m 1313 790 q 1283 812 1296 792 q 1247 857 1269 832 q 1194 912 1224 885 q 1119 972 1165 939 l 1136 996 q 1230 956 1189 976 q 1296 913 1271 935 q 1335 868 1324 889 q 1347 826 1347 847 q 1337 799 1347 808 q 1313 790 1326 790 m 1189 693 q 1160 715 1174 693 q 1125 761 1147 736 q 1076 820 1104 790 q 1003 883 1047 850 l 1019 910 q 1111 863 1072 886 q 1175 815 1150 839 q 1224 729 1224 769 q 1214 703 1224 713 q 1189 693 1204 693 m 907 -72 q 827 -67 875 -72 q 739 -53 779 -62 q 621 -6 675 -37 q 533 78 567 26 q 500 203 500 129 q 523 320 500 269 q 580 410 546 371 q 647 476 614 449 q 656 489 658 485 q 640 489 654 493 q 485 438 565 467 q 353 379 406 408 q 282 338 310 357 q 235 309 254 319 q 194 299 215 299 q 168 307 182 299 q 144 328 154 315 q 135 357 135 342 q 143 386 135 375 q 169 404 151 397 q 228 423 196 413 q 289 447 260 433 q 370 496 333 468 q 453 568 407 524 q 515 630 478 593 q 595 711 553 667 q 678 802 638 756 q 751 889 718 849 q 800 960 783 929 q 806 976 810 974 q 789 975 801 979 q 713 953 756 967 q 631 926 671 940 q 560 900 592 913 q 514 878 531 888 q 485 861 497 868 q 457 854 474 854 q 426 865 444 854 q 388 892 407 875 q 356 931 369 910 q 340 974 342 953 q 342 1007 340 988 q 349 1042 344 1026 l 368 1047 q 393 1004 381 1025 q 418 970 406 983 q 444 957 431 957 q 503 965 463 957 q 593 983 544 972 q 686 1006 642 994 q 753 1022 731 1017 q 788 1038 776 1031 q 806 1051 799 1046 q 826 1057 814 1057 q 860 1047 839 1057 q 901 1021 881 1036 q 934 989 921 1006 q 947 957 947 972 q 938 936 947 943 q 912 922 928 929 q 878 894 896 914 q 793 811 833 850 q 713 737 753 772 q 633 664 674 701 q 547 587 592 626 q 453 499 503 547 q 450 491 449 494 q 457 489 451 488 q 570 521 508 503 q 692 556 632 539 q 806 588 753 574 q 894 611 860 603 q 1013 639 969 629 q 1088 649 1057 649 q 1138 640 1113 649 q 1178 618 1163 632 q 1194 586 1194 604 q 1178 558 1194 568 q 1124 547 1163 547 q 1074 549 1101 547 q 1003 547 1047 550 q 885 533 944 544 q 777 502 826 521 q 697 460 728 483 q 634 402 664 435 q 585 326 604 369 q 567 224 567 282 q 626 95 568 140 q 778 38 685 50 q 874 32 833 29 q 939 31 914 35 q 976 8 957 26 q 994 -29 994 -10 q 974 -61 994 -50 q 907 -72 953 -72 z "},"た":{"ha":1389,"x_min":117,"x_max":1247,"o":"m 207 -42 q 178 -25 190 -42 q 167 15 167 -8 q 170 42 167 31 q 182 65 174 53 q 200 96 190 78 q 309 282 253 175 q 417 535 365 389 q 453 647 436 588 q 486 767 471 707 q 512 878 501 826 q 525 964 522 929 q 521 999 528 988 q 496 1019 514 1010 q 452 1033 475 1028 q 408 1043 429 1039 l 411 1075 q 453 1083 433 1081 q 499 1085 474 1086 q 556 1073 524 1083 q 613 1048 589 1063 q 638 1017 638 1033 q 632 989 638 1004 q 619 953 626 974 q 601 906 611 932 q 572 798 590 864 q 531 657 554 732 q 482 511 508 582 q 429 367 457 442 q 373 224 401 293 q 317 97 344 154 q 268 3 290 39 q 242 -31 254 -21 q 207 -42 229 -42 m 985 -31 q 837 -13 904 -31 q 722 42 769 4 q 653 140 674 79 q 629 219 635 181 q 622 294 624 258 l 656 299 q 673 233 663 269 q 703 167 683 197 q 802 85 739 110 q 956 60 865 60 q 1067 67 1025 60 q 1133 80 1108 74 q 1179 86 1158 86 q 1212 81 1196 86 q 1238 66 1228 76 q 1247 39 1247 56 q 1224 6 1247 18 q 1171 -12 1201 -7 q 1092 -25 1139 -19 q 985 -31 1044 -31 m 310 686 q 234 698 269 686 q 169 740 199 710 q 117 822 140 769 l 140 840 q 222 782 185 801 q 310 761 260 763 q 431 772 372 761 q 533 794 489 782 q 657 838 603 815 q 750 881 711 861 q 777 894 765 889 q 797 900 789 900 q 824 895 810 900 q 847 882 838 890 q 857 861 857 874 q 842 828 857 842 q 790 799 828 815 q 728 775 774 792 q 626 741 683 758 q 514 713 569 724 q 416 694 472 703 q 310 686 360 686 m 911 475 q 965 511 935 492 q 1022 549 996 531 q 1057 576 1049 568 q 1051 596 1072 590 q 994 609 1026 606 q 929 613 961 613 q 836 607 883 613 q 743 590 789 601 l 735 624 q 851 659 785 644 q 986 674 917 674 q 1102 663 1056 674 q 1174 640 1149 651 q 1211 613 1199 628 q 1224 579 1224 597 q 1208 554 1224 561 q 1167 544 1192 547 q 1130 539 1147 543 q 1085 522 1113 535 q 1009 489 1053 510 q 929 450 965 468 l 911 475 z "},"だ":{"ha":1389,"x_min":86,"x_max":1322,"o":"m 1164 779 q 1134 799 1147 779 q 1100 844 1121 818 q 1049 903 1079 871 q 975 967 1019 935 l 993 992 q 1086 947 1047 969 q 1151 897 1125 924 q 1189 854 1178 874 q 1200 815 1200 835 q 1190 788 1200 797 q 1164 779 1181 779 m 175 -57 q 147 -40 158 -57 q 135 0 135 -24 q 139 26 135 15 q 151 50 143 38 q 169 81 158 63 q 278 267 222 160 q 386 519 333 374 q 422 632 404 572 q 454 751 439 692 q 480 863 469 811 q 494 949 490 914 q 490 983 497 972 q 464 1004 483 994 q 421 1018 443 1013 q 376 1028 399 1024 l 379 1060 q 422 1068 401 1065 q 468 1069 442 1071 q 525 1058 493 1068 q 581 1033 557 1047 q 606 1001 606 1018 q 600 974 606 990 q 587 938 594 958 q 571 890 579 917 q 541 783 560 849 q 499 642 522 717 q 450 496 476 567 q 399 352 426 426 q 342 208 371 278 q 287 81 314 139 q 236 -12 260 24 q 210 -47 222 -36 q 175 -57 197 -57 m 953 -46 q 806 -28 872 -46 q 691 26 739 -11 q 621 125 643 64 q 597 204 603 165 q 590 279 592 243 l 625 285 q 641 218 631 254 q 671 151 651 182 q 772 69 708 94 q 924 44 835 44 q 1035 51 993 44 q 1102 64 1076 57 q 1147 71 1128 71 q 1180 66 1164 71 q 1206 51 1196 61 q 1217 24 1217 40 q 1193 -10 1217 3 q 1139 -28 1169 -22 q 1060 -40 1107 -35 q 953 -46 1014 -46 m 279 671 q 203 683 238 671 q 138 724 168 694 q 86 807 108 754 l 110 825 q 191 767 154 786 q 278 746 228 747 q 399 756 340 746 q 501 779 457 767 q 626 823 572 800 q 718 865 679 846 q 746 879 735 874 q 765 885 757 885 q 792 880 778 885 q 815 867 806 875 q 825 846 825 858 q 811 813 825 826 q 758 783 797 800 q 697 760 742 776 q 594 726 651 744 q 483 697 538 708 q 384 679 440 688 q 279 671 328 671 m 881 460 q 935 496 904 476 q 991 534 965 515 q 1026 561 1017 553 q 1019 581 1042 575 q 962 594 994 590 q 897 597 929 597 q 804 592 851 597 q 713 576 757 586 l 703 608 q 819 644 753 629 q 954 660 886 660 q 1071 648 1024 660 q 1143 625 1118 636 q 1179 597 1167 613 q 1192 564 1192 582 q 1176 539 1192 546 q 1136 529 1161 532 q 1099 524 1117 528 q 1053 507 1081 519 q 977 474 1021 494 q 897 435 933 453 l 881 460 m 1289 875 q 1258 895 1272 875 q 1222 942 1244 915 q 1172 994 1200 968 q 1097 1053 1144 1019 l 1113 1078 q 1208 1038 1168 1058 q 1272 996 1247 1018 q 1311 953 1300 974 q 1322 910 1322 932 q 1313 884 1322 893 q 1289 875 1304 875 z "},"ち":{"ha":1389,"x_min":133,"x_max":1164,"o":"m 488 -22 q 637 -8 569 -19 q 760 18 704 3 q 950 97 882 51 q 1044 194 1018 143 q 1069 294 1069 246 q 1041 399 1069 356 q 965 465 1013 442 q 858 488 917 488 q 744 467 801 488 q 634 414 688 447 q 534 339 581 381 q 450 254 488 297 q 429 224 440 243 q 407 192 418 206 q 382 178 396 178 q 355 192 368 178 q 333 228 342 207 q 324 272 324 250 q 331 301 324 289 q 354 350 339 314 q 383 435 367 382 q 415 551 399 489 q 447 670 432 614 q 469 764 461 726 q 488 848 479 806 q 503 926 497 890 q 510 981 510 963 q 506 1009 513 1001 q 482 1022 499 1017 q 445 1033 465 1029 q 399 1042 425 1038 l 397 1072 q 442 1082 419 1078 q 485 1086 464 1086 q 550 1074 517 1086 q 606 1046 583 1063 q 628 1013 628 1029 q 621 990 628 1000 q 604 968 614 981 q 589 933 594 956 q 569 863 579 903 q 544 764 558 822 q 521 673 535 725 q 492 566 507 621 q 464 464 476 511 q 443 385 451 417 q 440 356 438 361 q 465 371 443 351 q 658 490 563 444 q 864 535 754 535 q 1033 498 967 535 q 1132 401 1100 461 q 1164 271 1164 342 q 1125 139 1164 196 q 1019 42 1086 82 q 865 -22 951 1 q 682 -54 778 -46 q 492 -57 586 -62 l 488 -22 m 371 728 q 296 732 328 728 q 238 751 264 736 q 188 796 213 765 q 133 879 163 826 l 158 897 q 233 838 199 858 q 303 808 267 817 q 385 800 339 800 q 533 813 454 800 q 682 847 611 826 q 800 892 753 868 q 863 924 839 913 q 901 936 886 936 q 925 934 913 936 q 947 927 938 932 q 964 914 957 922 q 971 893 971 906 q 946 858 971 875 q 883 826 921 842 q 801 799 854 817 q 679 766 749 782 q 531 739 610 750 q 371 728 451 728 z "},"っ":{"ha":1389,"x_min":232,"x_max":1129,"o":"m 508 51 q 708 80 614 58 q 877 139 803 101 q 994 236 951 176 q 1038 379 1038 296 q 1013 479 1038 436 q 942 547 989 522 q 831 571 896 571 q 731 553 782 571 q 634 510 681 536 q 549 458 588 485 q 482 414 510 432 q 401 359 426 378 q 350 340 375 340 q 310 351 332 340 q 272 379 289 363 q 246 413 256 396 q 236 444 239 428 q 232 478 233 461 l 247 486 q 281 458 263 469 q 317 446 299 446 q 349 451 332 446 q 401 474 365 456 q 524 535 454 500 q 673 595 594 569 q 832 621 751 621 q 994 585 928 621 q 1095 490 1061 549 q 1129 365 1129 432 q 1104 242 1129 296 q 1035 150 1079 189 q 935 85 990 111 q 817 44 885 60 q 670 24 749 29 q 511 22 592 19 l 508 51 z "},"つ":{"ha":1389,"x_min":86,"x_max":1258,"o":"m 456 118 q 710 147 594 126 q 929 219 825 168 q 1103 354 1047 275 q 1160 544 1160 433 q 1125 680 1160 622 q 1026 769 1090 738 q 872 800 961 800 q 770 787 822 800 q 667 752 718 774 q 569 706 615 731 q 483 656 522 681 q 411 611 443 631 q 298 535 335 563 q 231 508 261 508 q 185 521 210 508 q 140 552 161 533 q 108 589 119 571 q 94 626 99 606 q 86 667 90 646 l 106 679 q 153 640 128 656 q 199 625 178 625 q 226 628 213 625 q 263 640 240 631 q 322 668 286 650 q 434 725 371 693 q 569 788 497 757 q 719 838 642 818 q 874 857 796 857 q 1040 831 968 857 q 1160 757 1113 804 q 1233 651 1208 710 q 1258 528 1258 592 q 1225 368 1258 438 q 1133 247 1192 299 q 999 160 1075 194 q 893 121 953 138 q 764 94 833 104 q 617 80 694 83 q 458 81 540 76 l 456 118 z "},"て":{"ha":1389,"x_min":106,"x_max":1244,"o":"m 1010 -3 q 914 2 969 -3 q 801 23 858 7 q 697 75 744 39 q 598 192 632 122 q 564 379 564 261 q 583 546 564 461 q 649 710 603 631 q 772 850 694 789 q 778 861 781 857 q 765 863 776 865 q 602 818 688 844 q 444 766 517 792 q 329 721 371 740 q 288 699 308 711 q 244 686 267 686 q 204 697 225 686 q 163 723 183 707 q 130 758 143 739 q 111 794 117 776 q 107 827 107 811 q 106 858 107 843 l 132 867 q 171 819 146 840 q 219 797 196 797 q 306 810 246 797 q 445 844 365 824 q 614 888 525 865 q 789 931 703 911 q 932 963 869 950 q 1038 981 994 975 q 1104 988 1081 988 q 1159 984 1132 988 q 1203 972 1186 981 q 1235 950 1225 961 q 1244 924 1244 939 q 1233 899 1244 910 q 1197 888 1221 888 q 1147 890 1176 888 q 1078 892 1117 892 q 963 882 1028 892 q 844 840 897 872 q 787 794 821 826 q 720 708 753 761 q 665 577 688 654 q 643 396 643 500 q 661 272 643 319 q 706 194 679 224 q 761 147 733 165 q 858 111 807 121 q 956 101 910 101 q 1031 101 1003 101 q 1065 94 1047 101 q 1097 74 1083 86 q 1110 43 1110 61 q 1098 17 1110 28 q 1064 2 1086 7 q 1010 -3 1042 -3 z "},"で":{"ha":1389,"x_min":78,"x_max":1288,"o":"m 1129 481 q 1101 501 1114 481 q 1065 549 1088 522 q 1013 606 1043 574 q 938 669 983 638 l 957 693 q 1049 649 1008 672 q 1115 600 1090 625 q 1151 557 1140 576 q 1163 517 1163 538 q 1153 490 1163 500 q 1129 481 1144 481 m 982 -8 q 886 -3 942 -8 q 773 17 831 1 q 668 69 715 33 q 569 186 603 117 q 536 374 536 256 q 556 540 536 456 q 621 704 575 625 q 744 844 667 783 q 750 856 751 851 q 736 857 749 860 q 574 813 660 839 q 416 760 489 786 q 300 715 343 735 q 260 693 281 706 q 215 681 239 681 q 176 691 197 681 q 135 717 154 701 q 101 752 115 733 q 82 789 88 771 q 78 822 78 806 q 78 853 79 838 l 103 861 q 142 813 118 835 q 192 792 167 792 q 278 805 218 792 q 417 839 338 818 q 585 883 496 860 q 760 925 675 906 q 903 957 840 944 q 1009 976 965 969 q 1075 982 1053 982 q 1130 978 1103 982 q 1174 967 1157 975 q 1207 944 1197 956 q 1217 918 1217 933 q 1204 893 1217 904 q 1169 882 1192 882 q 1119 884 1149 882 q 1049 886 1089 886 q 933 876 999 886 q 815 835 868 867 q 758 788 793 821 q 691 702 724 756 q 637 572 658 649 q 615 390 615 494 q 633 267 615 315 q 678 189 651 218 q 732 142 704 160 q 829 106 778 115 q 928 96 881 96 q 1001 96 975 96 q 1037 88 1018 96 q 1069 68 1056 81 q 1082 38 1082 56 q 1069 12 1082 22 q 1035 -3 1057 1 q 982 -8 1014 -8 m 1256 583 q 1226 603 1239 583 q 1190 650 1213 624 q 1137 703 1165 676 q 1061 761 1108 729 l 1079 786 q 1172 747 1131 767 q 1236 706 1213 726 q 1276 663 1264 683 q 1288 619 1288 642 q 1279 592 1288 601 q 1256 583 1271 583 z "},"と":{"ha":1389,"x_min":306,"x_max":1106,"o":"m 701 -37 q 494 -12 581 -37 q 360 64 407 14 q 313 186 313 114 q 344 310 313 251 q 422 419 375 369 q 515 504 468 468 q 592 561 563 540 q 678 613 629 586 q 775 666 726 640 q 864 713 824 692 q 926 746 904 735 q 948 763 944 754 q 944 785 951 771 q 916 818 936 804 q 874 843 896 832 l 886 865 q 940 856 914 861 q 985 840 967 850 q 1029 805 1010 826 q 1059 763 1049 783 q 1069 728 1069 743 q 1046 697 1069 708 q 981 669 1022 685 q 876 628 938 654 q 752 571 814 601 q 642 511 690 540 q 555 454 601 488 q 469 381 508 421 q 403 295 429 340 q 378 201 378 250 q 407 128 378 161 q 500 74 436 94 q 672 54 564 54 q 840 64 772 54 q 951 83 908 74 q 1014 93 993 93 q 1059 88 1038 93 q 1093 72 1081 83 q 1106 39 1106 60 q 1092 13 1106 25 q 1056 -4 1078 1 q 983 -19 1031 -11 q 866 -32 936 -26 q 701 -37 796 -37 m 583 531 q 521 588 544 551 q 483 661 497 624 q 459 746 471 697 q 439 848 447 794 q 422 951 431 901 q 413 980 421 969 q 383 997 404 990 q 344 1008 367 1004 q 307 1015 322 1013 l 306 1044 q 353 1056 333 1053 q 394 1058 374 1058 q 458 1046 426 1058 q 510 1016 489 1033 q 532 982 532 999 q 526 949 532 964 q 522 910 521 935 q 527 845 524 883 q 538 767 531 807 q 553 699 544 728 q 588 626 565 658 q 647 572 610 593 l 583 531 z "},"な":{"ha":1389,"x_min":139,"x_max":1235,"o":"m 707 -61 q 542 -15 599 -61 q 485 90 485 31 q 521 185 485 143 q 623 250 557 226 q 782 274 689 274 q 990 238 899 274 q 1139 160 1081 201 q 1212 99 1189 129 q 1235 43 1235 69 q 1226 10 1235 22 q 1200 -1 1217 -1 q 1176 6 1188 -1 q 1153 24 1165 13 q 1126 50 1142 36 q 1023 131 1081 96 q 894 188 965 167 q 731 210 822 210 q 587 177 636 210 q 538 107 538 144 q 574 45 538 71 q 686 19 611 19 q 788 40 753 19 q 837 94 824 60 q 850 168 850 128 q 846 264 850 215 q 838 360 842 313 q 833 449 833 407 q 849 549 833 508 q 900 622 865 590 q 976 676 933 657 q 1054 713 1018 696 q 1074 736 1076 722 q 1054 763 1072 750 q 983 794 1025 785 q 894 804 942 804 l 896 839 q 998 842 947 846 q 1088 822 1049 838 q 1183 760 1151 799 q 1215 681 1215 722 q 1206 644 1215 657 q 1175 631 1196 631 q 1144 636 1160 631 q 1109 647 1129 642 q 1060 649 1089 651 q 989 631 1024 644 q 931 594 954 618 q 901 539 907 571 q 896 469 894 507 q 903 401 897 444 q 917 306 910 357 q 928 205 924 254 q 933 121 933 156 q 874 -13 933 35 q 707 -61 814 -61 m 196 143 q 166 160 176 143 q 156 197 156 178 q 161 230 156 214 q 181 264 167 246 q 277 403 225 324 q 377 579 329 483 q 454 783 425 675 q 472 854 464 817 q 486 926 481 892 q 493 983 492 961 q 488 1016 494 1006 q 464 1033 482 1026 q 431 1047 449 1042 q 399 1056 413 1051 l 399 1078 q 438 1090 415 1085 q 481 1094 461 1094 q 536 1089 508 1094 q 582 1071 564 1083 q 594 1054 592 1065 q 591 1017 596 1043 q 573 944 586 992 q 538 817 560 897 q 506 719 525 776 q 459 593 486 661 q 400 455 432 525 q 333 317 368 385 q 258 193 297 250 q 230 158 244 172 q 196 143 215 143 m 335 742 q 248 756 283 742 q 187 800 213 769 q 139 879 161 831 l 164 899 q 219 856 194 874 q 273 828 243 838 q 350 818 303 818 q 412 823 381 818 q 470 834 443 828 q 515 844 497 840 q 639 887 597 868 q 701 917 681 906 q 736 929 722 929 q 773 917 758 929 q 788 888 788 906 q 769 855 788 868 q 740 835 751 842 q 667 805 713 821 q 567 774 622 789 q 451 751 511 760 q 335 742 392 742 z "},"に":{"ha":1389,"x_min":189,"x_max":1260,"o":"m 335 -36 q 299 -22 317 -36 q 269 15 282 -7 q 232 93 250 44 q 201 202 214 142 q 189 326 189 263 q 201 476 189 410 q 228 597 213 543 q 256 693 244 651 q 278 781 268 743 q 290 854 289 819 q 269 927 292 892 q 213 1000 247 963 l 235 1018 q 272 999 256 1008 q 306 976 288 990 q 341 941 319 964 q 379 889 363 918 q 396 831 396 860 q 382 780 396 807 q 343 690 368 753 q 305 599 325 651 q 269 482 285 546 q 254 350 254 418 q 261 269 254 294 q 276 231 268 244 q 307 229 290 203 q 337 285 318 249 q 376 367 356 322 q 416 454 397 413 q 446 522 435 496 l 479 506 q 453 439 468 479 q 420 356 438 399 q 390 278 403 314 q 371 224 376 243 q 354 167 361 192 q 347 124 347 143 q 361 63 347 94 q 375 6 375 31 q 335 -36 375 -36 m 981 43 q 796 67 872 43 q 672 138 719 90 q 604 257 625 186 q 592 321 596 289 q 586 381 588 353 l 618 386 q 635 326 625 361 q 658 265 644 292 q 717 196 682 225 q 809 151 753 167 q 950 135 865 135 q 1071 141 1025 135 q 1143 153 1117 147 q 1186 160 1169 160 q 1222 155 1206 160 q 1249 141 1238 150 q 1260 115 1260 132 q 1221 72 1260 88 q 1119 49 1182 56 q 981 43 1057 43 m 797 667 q 867 717 829 690 q 939 770 906 744 q 988 808 972 796 q 995 822 996 817 q 976 831 994 828 q 911 833 958 833 q 801 824 868 833 q 647 788 735 815 l 633 821 q 747 871 690 853 q 860 898 804 889 q 965 907 917 907 q 1081 900 1038 907 q 1158 878 1125 893 q 1190 856 1181 869 q 1200 829 1200 842 q 1192 808 1200 817 q 1163 794 1183 799 q 1110 788 1138 793 q 1049 768 1083 782 q 978 733 1019 754 q 896 687 938 711 q 821 642 854 663 l 797 667 z "},"の":{"ha":1389,"x_min":149,"x_max":1246,"o":"m 642 26 q 923 123 811 57 q 1090 288 1035 189 q 1146 513 1146 388 q 1091 728 1146 638 q 942 868 1036 818 q 733 918 849 918 q 538 880 635 918 q 369 769 442 842 q 265 623 304 706 q 226 449 226 540 q 244 330 226 383 q 288 245 261 276 q 344 214 315 214 q 419 250 379 214 q 497 341 458 286 q 567 456 535 396 q 621 565 600 515 q 656 674 642 615 q 671 779 671 732 q 658 853 671 821 q 624 921 644 886 l 672 931 q 707 881 690 907 q 733 826 724 854 q 743 768 743 799 q 732 662 743 719 q 700 544 721 604 q 653 435 682 494 q 588 319 625 376 q 510 213 551 261 q 424 137 468 165 q 339 108 381 108 q 270 133 304 108 q 209 203 236 158 q 165 305 182 247 q 149 426 149 363 q 170 567 149 497 q 233 700 192 636 q 333 817 275 764 q 524 929 419 893 q 739 965 628 965 q 939 932 847 965 q 1099 836 1031 899 q 1207 686 1168 774 q 1246 490 1246 599 q 1215 320 1246 404 q 1116 167 1185 236 q 932 51 1047 97 q 647 -6 817 4 l 642 26 z "},"は":{"ha":1389,"x_min":161,"x_max":1297,"o":"m 794 -17 q 682 1 732 -17 q 602 56 632 19 q 572 140 572 92 q 608 238 572 200 q 707 294 644 276 q 844 313 769 313 q 1033 288 953 313 q 1167 228 1113 263 q 1253 164 1222 193 q 1285 125 1274 144 q 1297 86 1297 106 q 1288 54 1297 67 q 1261 42 1279 42 q 1232 53 1246 42 q 1197 83 1218 64 q 1092 169 1149 132 q 966 229 1036 207 q 804 251 896 251 q 719 240 761 251 q 651 205 678 228 q 624 149 624 182 q 665 81 624 101 q 769 60 707 60 q 883 78 846 60 q 934 134 921 97 q 947 228 947 171 q 945 311 947 258 q 940 428 943 364 q 933 560 936 493 q 929 686 931 626 q 929 770 929 722 q 929 863 929 818 q 929 932 929 908 q 927 957 929 949 q 919 970 925 965 q 904 978 914 975 q 860 987 885 983 q 807 990 835 990 l 804 1019 q 853 1038 825 1029 q 906 1046 882 1046 q 965 1035 935 1046 q 1017 1008 996 1024 q 1038 975 1038 992 q 1034 951 1038 963 q 1026 924 1031 940 q 1015 878 1021 908 q 1008 824 1011 854 q 1004 758 1006 793 q 1003 685 1003 724 q 1010 477 1003 578 q 1024 294 1017 376 q 1031 164 1031 213 q 1007 71 1031 113 q 932 6 983 29 q 794 -17 881 -17 m 308 -51 q 274 -36 290 -51 q 242 1 257 -21 q 205 79 224 29 q 174 193 186 129 q 161 326 161 257 q 173 482 161 410 q 201 613 185 554 q 228 714 217 672 q 252 803 242 764 q 264 875 263 842 q 242 948 265 913 q 183 1026 219 983 l 206 1044 q 243 1027 229 1035 q 276 1003 257 1019 q 313 967 290 993 q 352 911 335 942 q 369 851 369 881 q 356 802 369 829 q 315 713 342 775 q 278 615 300 674 q 241 488 257 557 q 225 346 225 418 q 232 258 225 290 q 251 206 239 226 q 267 192 258 193 q 283 206 275 190 q 313 261 294 222 q 351 347 331 300 q 390 438 371 394 q 421 508 408 482 l 454 492 q 429 424 444 465 q 399 341 414 383 q 370 263 383 299 q 350 207 357 226 q 334 151 340 174 q 328 111 328 128 q 338 49 328 79 q 347 -8 347 18 q 308 -51 347 -51 m 772 657 q 694 666 729 657 q 626 703 660 675 q 554 783 593 731 l 575 803 q 663 752 617 772 q 769 732 710 732 q 907 742 843 732 q 1019 767 971 753 q 1094 793 1067 782 q 1157 821 1139 811 q 1183 831 1175 831 q 1231 818 1206 829 q 1256 786 1256 807 q 1241 756 1256 767 q 1192 731 1226 744 q 1118 709 1165 722 q 1013 684 1071 696 q 893 665 956 672 q 772 657 831 657 z "},"べ":{"ha":1389,"x_min":60,"x_max":1304,"o":"m 1214 756 q 1183 774 1197 756 q 1143 822 1168 792 q 1081 886 1118 853 q 993 951 1044 919 l 1011 975 q 1115 934 1072 957 q 1182 890 1157 911 q 1246 789 1246 838 q 1238 765 1246 774 q 1214 756 1229 756 m 1076 636 q 1044 655 1060 636 q 1006 703 1029 674 q 950 767 981 735 q 867 838 919 800 l 885 860 q 985 814 943 840 q 1054 765 1026 788 q 1111 668 1114 714 q 1101 644 1110 653 q 1076 636 1092 636 m 1260 93 q 1188 119 1233 93 q 1087 192 1143 146 q 971 296 1031 239 q 855 422 913 356 q 742 556 797 489 q 633 679 688 622 q 596 706 614 699 q 563 714 578 714 q 537 705 550 714 q 508 678 524 696 q 463 623 490 657 q 408 552 436 589 q 353 480 381 515 q 307 419 326 444 q 262 365 282 385 q 213 344 242 344 q 149 367 185 344 q 92 414 114 389 q 73 447 81 428 q 60 486 65 467 l 82 506 q 131 469 107 483 q 172 454 154 454 q 203 464 186 454 q 239 490 219 474 q 294 547 264 514 q 358 615 325 579 q 421 683 392 651 q 469 738 450 715 q 514 774 492 761 q 563 788 536 788 q 619 776 590 788 q 679 732 647 765 q 792 614 735 679 q 916 480 850 549 q 1063 345 982 411 q 1250 222 1144 279 q 1291 185 1278 207 q 1304 139 1304 164 q 1293 106 1304 119 q 1260 93 1282 93 z "},"ま":{"ha":1389,"x_min":213,"x_max":1167,"o":"m 546 -60 q 377 -16 444 -60 q 310 101 310 28 q 353 195 310 157 q 468 253 396 233 q 626 272 540 272 q 806 254 724 272 q 951 209 888 236 q 1057 155 1014 182 q 1119 110 1100 128 q 1154 73 1142 92 q 1167 33 1167 54 q 1156 3 1167 13 q 1129 -7 1146 -7 q 1097 3 1111 -7 q 1063 31 1082 14 q 933 124 1007 83 q 772 189 858 165 q 589 213 685 213 q 426 181 486 213 q 365 106 365 149 q 402 43 365 69 q 508 17 439 17 q 639 36 594 17 q 699 98 683 56 q 715 210 715 140 q 712 306 715 244 q 705 445 708 367 q 701 613 701 524 q 703 726 701 667 q 706 837 704 785 q 708 925 707 889 q 708 969 708 961 q 703 998 708 990 q 681 1013 697 1006 q 635 1022 658 1019 q 579 1028 613 1025 l 575 1057 q 620 1073 596 1067 q 672 1079 644 1079 q 737 1068 703 1079 q 794 1040 771 1057 q 818 1004 818 1022 q 808 969 818 983 q 793 928 799 956 q 781 849 788 894 q 771 741 775 803 q 767 596 767 679 q 775 403 767 489 q 790 249 783 317 q 797 126 797 181 q 729 -11 797 38 q 546 -60 661 -60 m 535 475 q 410 491 461 475 q 335 538 358 507 q 325 613 313 569 q 393 713 338 657 l 422 696 q 380 606 378 638 q 422 560 382 574 q 531 547 463 547 q 685 555 606 547 q 837 576 764 563 q 967 608 910 590 q 1022 630 1001 621 q 1054 639 1042 639 q 1098 628 1076 639 q 1119 596 1119 618 q 1108 570 1119 581 q 1079 551 1097 560 q 990 526 1047 539 q 856 501 932 513 q 698 483 781 490 q 535 475 615 475 m 494 742 q 381 755 431 742 q 290 800 331 768 q 213 886 249 832 l 236 906 q 302 858 271 878 q 375 826 333 838 q 482 815 417 815 q 626 822 551 815 q 772 842 701 829 q 901 867 843 854 q 992 892 958 881 q 1040 910 1021 901 q 1072 919 1058 919 q 1106 915 1089 919 q 1133 901 1122 910 q 1144 876 1144 892 q 1132 849 1144 858 q 1099 832 1119 840 q 1003 806 1068 821 q 854 776 939 792 q 676 751 769 761 q 494 742 582 742 z "},"み":{"ha":1389,"x_min":121,"x_max":1303,"o":"m 232 51 q 167 85 193 51 q 131 169 140 118 q 131 268 121 219 q 170 355 140 314 q 246 428 200 396 q 347 483 292 461 q 465 517 403 506 q 589 529 526 529 q 784 510 692 529 q 952 463 876 492 q 1081 406 1028 433 q 1158 360 1122 382 q 1221 317 1193 338 q 1268 276 1249 296 q 1295 238 1288 257 q 1301 196 1303 219 q 1292 168 1301 179 q 1263 157 1282 157 q 1220 178 1244 157 q 1157 236 1196 200 q 1053 314 1118 272 q 969 367 1017 339 q 861 418 921 394 q 725 457 801 442 q 554 472 649 472 q 421 456 483 472 q 308 413 358 440 q 226 349 258 385 q 183 274 194 313 q 181 216 176 244 q 201 169 186 188 q 233 151 215 151 q 279 167 261 151 q 319 213 297 182 q 359 272 336 233 q 408 358 382 311 q 460 452 435 406 q 508 536 486 499 q 566 637 533 581 q 632 749 599 693 q 692 850 665 804 q 732 919 719 896 q 736 941 740 936 q 718 943 732 946 q 660 922 694 935 q 590 897 625 910 q 529 871 556 883 q 495 851 511 864 q 461 839 479 839 q 418 853 442 839 q 376 888 394 867 q 349 928 357 908 q 342 962 343 940 q 340 1001 340 983 l 367 1010 q 397 960 383 982 q 442 938 411 938 q 497 944 464 938 q 567 960 531 950 q 636 978 604 969 q 688 993 668 988 q 736 1018 724 1006 q 765 1031 749 1031 q 799 1022 779 1031 q 838 999 819 1013 q 869 970 857 985 q 882 943 882 956 q 868 918 882 929 q 835 894 854 907 q 801 863 817 882 q 757 803 785 843 q 697 716 729 764 q 636 620 665 668 q 585 535 607 572 q 531 434 560 490 q 474 322 503 378 q 422 221 446 267 q 379 149 397 175 q 313 77 347 103 q 232 51 279 51 m 564 -53 q 859 113 740 1 q 1025 375 978 224 q 1049 478 1043 431 q 1051 556 1054 525 q 1047 582 1051 574 q 1029 599 1043 590 q 976 618 1010 611 l 978 644 q 1015 652 994 650 q 1051 653 1035 654 q 1096 640 1074 650 q 1134 615 1118 629 q 1150 588 1150 601 q 1146 553 1150 571 q 1139 511 1142 536 q 1131 461 1136 493 q 1118 394 1126 429 q 1100 328 1110 358 q 917 65 1047 168 q 585 -85 786 -39 l 564 -53 z "},"め":{"ha":1389,"x_min":161,"x_max":1244,"o":"m 610 -8 q 876 65 772 18 q 1040 173 981 113 q 1122 301 1099 233 q 1146 435 1146 368 q 1121 561 1146 501 q 1049 667 1096 621 q 938 741 1001 714 q 794 768 874 768 q 596 740 689 768 q 415 636 503 711 q 316 524 357 586 q 254 402 275 461 q 233 297 233 343 q 252 213 233 239 q 300 188 271 188 q 372 203 342 188 q 436 244 401 218 q 509 313 471 271 q 584 408 547 356 q 649 515 621 461 q 722 677 690 594 q 774 834 754 760 q 800 961 794 908 q 792 994 801 985 q 763 1008 782 1003 q 724 1016 744 1014 q 678 1018 703 1018 l 675 1047 q 713 1060 692 1054 q 756 1067 735 1067 q 806 1058 779 1067 q 858 1036 833 1050 q 897 1006 882 1022 q 911 976 911 989 q 899 938 911 956 q 878 892 888 919 q 851 804 865 849 q 818 710 836 760 q 775 603 800 660 q 715 481 750 547 q 637 348 674 404 q 562 250 600 292 q 475 172 524 208 q 385 117 433 140 q 278 93 338 93 q 212 117 238 93 q 174 180 186 142 q 161 260 161 218 q 185 406 161 338 q 244 528 208 474 q 318 621 281 582 q 382 679 356 660 q 492 749 433 717 q 624 802 550 782 q 793 822 697 822 q 1035 767 935 822 q 1190 619 1136 711 q 1244 414 1244 528 q 1215 256 1244 333 q 1114 116 1185 179 q 922 11 1043 53 q 617 -42 800 -31 l 610 -8 m 672 243 q 622 258 649 243 q 576 288 594 274 q 492 377 529 324 q 431 482 454 431 q 392 581 410 531 q 361 676 375 631 q 335 757 347 722 q 290 831 321 796 q 208 908 258 867 l 226 928 q 276 912 251 922 q 319 888 301 901 q 374 847 343 872 q 415 775 404 821 q 435 697 424 743 q 463 599 446 650 q 504 501 479 549 q 580 402 536 442 q 665 339 624 363 q 700 314 685 328 q 715 279 715 300 q 703 252 715 261 q 672 243 692 243 z "},"も":{"ha":1389,"x_min":274,"x_max":1122,"o":"m 767 -67 q 608 -31 672 -67 q 510 68 543 4 q 478 217 478 132 q 487 339 478 269 q 510 481 496 408 q 540 619 525 554 q 565 726 554 683 q 594 828 581 779 q 619 915 608 876 q 631 975 629 954 q 625 1012 633 1001 q 599 1029 617 1022 q 562 1043 582 1038 q 525 1050 542 1049 l 526 1082 q 563 1086 544 1085 q 603 1088 582 1088 q 653 1077 628 1088 q 701 1049 679 1067 q 738 1014 724 1032 q 751 982 751 996 q 740 951 751 963 q 715 913 728 939 q 684 835 700 881 q 644 715 668 790 q 613 608 631 672 q 577 471 594 543 q 549 332 560 399 q 538 217 538 265 q 599 63 538 113 q 758 14 661 14 q 910 49 850 14 q 999 138 969 83 q 1029 250 1029 192 q 1001 384 1029 326 q 922 490 972 442 q 807 586 872 539 l 826 610 q 999 495 935 556 q 1093 367 1064 435 q 1122 224 1122 299 q 1101 122 1122 174 q 1035 28 1079 71 q 924 -41 990 -15 q 767 -67 857 -67 m 708 325 q 622 324 676 322 q 504 336 568 325 q 340 401 399 354 q 282 511 282 449 q 307 587 282 549 q 376 660 332 625 q 471 721 419 694 q 420 738 444 729 q 369 765 396 747 q 309 822 331 790 q 274 906 288 854 l 297 919 q 353 852 324 882 q 424 806 382 822 q 576 770 503 772 q 711 763 650 768 q 759 744 744 760 q 774 711 774 729 q 760 685 774 694 q 721 675 746 676 q 675 676 704 675 q 616 679 646 678 q 565 681 586 681 q 491 667 531 681 q 416 630 451 653 q 359 580 381 607 q 338 526 338 553 q 352 485 338 506 q 405 447 367 464 q 515 421 443 431 q 640 415 586 413 q 721 414 694 417 q 761 401 746 413 q 776 368 776 390 q 762 339 776 350 q 708 325 747 328 z "},"ゃ":{"ha":1389,"x_min":215,"x_max":1151,"o":"m 721 -94 q 694 -84 704 -94 q 676 -50 683 -74 q 662 10 671 -31 q 638 101 653 51 q 585 246 618 163 q 500 413 551 329 q 459 474 476 451 q 426 517 442 497 q 397 554 410 538 q 390 601 383 571 q 405 637 394 625 q 429 653 415 649 q 458 658 443 658 q 486 660 474 658 q 599 667 544 663 q 675 674 653 671 q 686 699 697 675 q 651 738 678 717 q 576 774 625 760 l 585 793 q 698 772 654 792 q 761 726 742 751 q 787 689 778 708 q 796 650 796 669 q 787 621 796 631 q 761 611 778 611 q 731 617 747 611 q 696 625 715 622 q 642 627 676 626 q 572 628 608 628 q 506 625 536 628 q 473 618 483 624 q 463 596 463 613 q 478 559 463 583 q 516 506 494 535 q 556 451 538 476 q 625 331 593 393 q 683 212 657 269 q 728 108 708 154 q 755 31 744 71 q 765 -37 765 -10 q 753 -78 765 -62 q 721 -94 742 -94 m 928 244 q 808 276 868 244 q 699 374 749 308 l 715 389 q 814 331 767 349 q 919 314 861 314 q 1030 348 988 314 q 1072 442 1072 382 q 1031 531 1072 497 q 929 565 990 565 q 813 544 875 565 q 683 488 750 522 q 551 414 617 454 q 424 333 485 374 q 372 293 389 308 q 331 278 354 278 q 277 298 308 278 q 232 340 246 318 q 219 369 222 353 q 217 408 215 385 l 238 418 q 266 385 250 400 q 300 371 282 371 q 342 381 318 371 q 393 404 367 390 q 588 501 492 456 q 772 574 683 546 q 935 603 860 603 q 1049 579 1000 603 q 1125 515 1099 556 q 1151 421 1151 474 q 1122 326 1151 365 q 1042 265 1092 286 q 928 244 992 244 z "},"や":{"ha":1389,"x_min":68,"x_max":1290,"o":"m 729 -75 q 701 -63 713 -75 q 681 -24 689 -51 q 663 52 674 -1 q 629 174 651 106 q 584 300 611 231 q 522 444 557 369 q 439 590 486 519 q 384 674 407 643 q 342 729 361 706 q 306 774 322 751 q 301 836 290 796 q 319 876 307 863 q 349 895 332 890 q 383 900 365 900 q 417 901 401 900 q 529 910 475 907 q 625 916 583 914 q 688 921 667 918 q 703 954 717 924 q 655 1006 690 979 q 553 1053 619 1033 l 565 1082 q 701 1048 650 1075 q 781 990 753 1021 q 814 942 801 968 q 826 892 826 917 q 816 857 826 868 q 788 846 806 846 q 750 853 769 846 q 703 861 731 860 q 629 865 675 864 q 533 865 583 867 q 443 858 483 863 q 398 847 411 854 q 385 819 385 840 q 405 770 385 803 q 453 701 425 738 q 500 632 481 664 q 593 474 551 554 q 669 318 635 394 q 731 175 703 242 q 763 77 749 129 q 778 -8 778 25 q 765 -56 778 -37 q 729 -75 753 -75 m 1001 374 q 849 410 928 374 q 700 526 769 446 l 725 549 q 858 475 796 497 q 997 453 919 453 q 1144 497 1088 453 q 1200 619 1200 542 q 1175 708 1200 669 q 1106 767 1150 746 q 1007 788 1063 788 q 884 770 949 788 q 751 724 819 753 q 614 657 683 694 q 474 577 544 619 q 335 493 404 535 q 281 456 301 472 q 245 431 260 440 q 210 422 231 422 q 167 434 192 422 q 122 465 143 446 q 88 501 100 483 q 74 538 78 519 q 68 579 69 556 l 97 592 q 134 547 113 569 q 179 525 156 525 q 231 538 201 525 q 299 568 261 550 q 493 667 399 619 q 678 752 588 714 q 851 813 768 790 q 1013 835 935 835 q 1158 805 1096 835 q 1256 722 1221 775 q 1290 601 1290 669 q 1251 476 1290 528 q 1145 399 1211 425 q 1001 374 1079 374 z "},"ょ":{"ha":1389,"x_min":365,"x_max":1054,"o":"m 558 -78 q 419 -44 474 -78 q 365 51 365 -10 q 402 137 365 104 q 498 186 439 169 q 624 203 557 203 q 777 185 708 203 q 899 140 846 167 q 970 101 935 125 q 1030 51 1006 78 q 1054 -6 1054 24 q 1045 -34 1054 -25 q 1019 -43 1036 -43 q 979 -24 1000 -43 q 927 22 958 -6 q 844 79 896 50 q 726 127 792 108 q 582 146 660 146 q 459 120 506 146 q 413 60 413 94 q 442 13 413 32 q 525 -6 471 -6 q 623 10 589 -6 q 671 59 657 26 q 685 143 685 92 q 683 210 685 168 q 678 300 681 251 q 672 394 675 349 q 669 471 669 439 q 669 530 669 496 q 668 598 668 564 q 667 657 668 632 q 664 690 665 682 q 657 715 663 707 q 638 728 651 722 q 599 738 619 735 q 561 743 579 742 l 558 761 q 601 776 579 769 q 644 783 622 783 q 705 772 675 783 q 755 745 735 761 q 775 714 775 729 q 767 685 775 696 q 751 650 758 674 q 746 613 749 636 q 740 561 743 589 q 736 506 738 533 q 735 458 735 479 q 736 389 735 433 q 740 294 738 344 q 746 204 743 244 q 753 138 749 165 q 758 75 758 111 q 747 15 758 43 q 711 -33 736 -12 q 649 -66 686 -54 q 558 -78 611 -78 m 813 468 q 777 475 796 468 q 741 491 758 482 q 711 507 724 500 l 711 538 q 738 535 725 536 q 760 533 750 533 q 828 540 789 533 q 894 557 867 546 q 935 573 919 565 q 960 581 951 581 q 998 576 982 581 q 1024 563 1014 572 q 1033 538 1033 554 q 1024 517 1033 526 q 993 499 1015 507 q 948 486 978 493 q 882 474 918 479 q 813 468 846 468 z "},"よ":{"ha":1389,"x_min":271,"x_max":1165,"o":"m 517 -51 q 389 -32 444 -51 q 302 24 333 -12 q 271 110 271 61 q 318 216 271 175 q 441 277 365 257 q 599 297 517 297 q 797 275 708 297 q 961 218 886 253 q 1051 169 1004 199 q 1132 106 1099 140 q 1165 35 1165 71 q 1155 5 1165 15 q 1125 -6 1144 -6 q 1078 17 1104 -6 q 1013 76 1053 40 q 906 149 972 111 q 746 211 835 189 q 557 233 657 233 q 438 219 490 233 q 356 177 386 204 q 326 117 326 150 q 365 55 326 81 q 482 29 404 29 q 616 51 571 29 q 676 117 661 72 q 692 231 692 163 q 690 290 692 250 q 685 383 688 331 q 679 492 682 436 q 674 598 676 547 q 672 685 672 649 q 672 762 672 719 q 670 844 671 804 q 669 916 669 885 q 667 957 668 947 q 657 990 665 979 q 629 1007 649 1000 q 583 1017 608 1014 q 532 1021 557 1019 l 529 1050 q 579 1065 553 1058 q 632 1071 606 1071 q 705 1058 668 1071 q 766 1026 742 1044 q 790 992 790 1008 q 781 953 790 968 q 763 907 771 938 q 754 862 758 890 q 748 801 750 833 q 744 735 746 768 q 743 675 743 703 q 744 608 743 651 q 747 513 744 565 q 751 410 749 461 q 757 318 754 360 q 768 230 763 267 q 774 143 774 193 q 758 65 774 100 q 709 3 742 29 q 628 -37 676 -24 q 517 -51 581 -51 m 836 667 q 794 674 817 667 q 751 690 771 681 q 715 708 731 700 l 715 744 q 753 740 735 742 q 785 739 772 739 q 875 747 824 739 q 964 767 926 756 q 1017 788 997 778 q 1051 797 1036 797 q 1097 792 1079 797 q 1123 776 1114 786 q 1132 749 1132 765 q 1119 724 1132 736 q 1081 704 1107 713 q 1019 688 1060 697 q 929 673 978 679 q 836 667 881 667 z "},"ら":{"ha":1389,"x_min":294,"x_max":1176,"o":"m 483 -24 q 628 -8 557 -19 q 747 15 700 3 q 948 97 875 50 q 1050 196 1021 144 q 1079 299 1079 247 q 1050 406 1079 361 q 972 476 1021 451 q 863 500 922 500 q 745 479 804 500 q 630 424 686 458 q 524 345 574 389 q 433 254 475 301 q 414 227 424 243 q 394 199 404 211 q 369 188 383 188 q 322 217 346 188 q 302 249 310 231 q 294 281 294 267 q 300 321 294 297 q 308 369 306 344 q 322 461 314 411 q 340 560 331 511 q 354 642 350 608 q 360 715 361 686 q 358 767 358 744 q 370 806 358 789 q 415 831 382 822 q 502 852 451 840 q 602 877 553 864 q 678 900 651 890 q 679 944 710 911 q 599 1003 653 978 q 481 1047 546 1029 l 489 1078 q 644 1047 586 1069 q 739 999 703 1024 q 801 936 785 968 q 818 868 818 904 q 807 828 818 842 q 774 815 796 815 q 743 818 756 815 q 714 823 731 821 q 667 824 697 825 q 585 816 626 822 q 509 802 543 810 q 457 790 475 794 q 434 779 440 786 q 428 761 428 772 q 436 726 428 750 q 444 681 444 701 q 437 626 446 656 q 418 561 428 597 q 396 461 407 514 q 385 357 385 408 q 404 349 385 333 q 522 435 463 397 q 640 497 581 472 q 757 535 699 522 q 868 549 815 549 q 1041 509 974 549 q 1142 406 1108 469 q 1176 274 1176 343 q 1136 141 1176 199 q 1026 43 1096 83 q 867 -22 957 3 q 680 -55 778 -46 q 488 -58 582 -64 l 483 -24 z "},"り":{"ha":1389,"x_min":389,"x_max":1032,"o":"m 517 -71 q 724 44 643 -21 q 851 183 806 108 q 916 344 897 258 q 935 524 935 431 q 915 718 935 638 q 860 842 896 799 q 775 885 824 885 q 706 865 743 885 q 633 811 668 846 q 574 729 599 776 q 521 601 540 665 q 501 464 501 538 q 506 388 501 421 q 510 322 510 356 q 499 290 510 303 q 471 278 488 278 q 444 285 456 278 q 422 313 432 292 q 410 351 415 328 q 403 399 406 374 q 401 442 401 424 q 411 570 401 497 q 434 716 421 643 q 458 848 447 789 q 468 935 468 907 q 461 997 468 971 q 436 1049 454 1024 q 389 1107 418 1074 l 407 1125 q 444 1113 428 1119 q 474 1094 460 1106 q 520 1053 500 1078 q 553 1006 540 1029 q 565 967 565 982 q 560 928 565 946 q 547 885 554 910 q 529 818 536 851 q 515 744 522 785 q 518 722 511 724 q 536 742 525 721 q 610 844 569 800 q 698 915 651 889 q 789 940 744 940 q 926 885 872 940 q 1006 733 979 829 q 1032 514 1032 638 q 985 249 1032 371 q 828 37 938 126 q 532 -103 719 -53 l 517 -71 z "},"る":{"ha":1389,"x_min":240,"x_max":1139,"o":"m 715 -37 q 578 -18 638 -37 q 487 38 519 1 q 454 125 454 75 q 498 218 454 181 q 610 256 542 256 q 713 231 663 256 q 797 158 763 207 q 839 33 832 110 l 757 21 q 701 158 747 111 q 589 204 654 204 q 528 185 553 204 q 503 131 503 165 q 549 67 503 94 q 696 39 596 39 q 890 75 813 39 q 1007 171 968 111 q 1047 300 1046 231 q 1019 418 1049 363 q 932 509 990 474 q 788 544 874 544 q 607 506 689 544 q 457 406 525 468 q 331 269 389 344 q 304 242 315 250 q 278 236 293 235 q 253 251 265 236 q 242 292 240 265 q 253 327 243 311 q 288 368 264 343 q 420 505 353 436 q 551 637 488 574 q 667 756 614 700 q 759 856 721 813 q 815 928 797 900 q 820 949 825 943 q 803 951 815 954 q 738 933 781 947 q 652 903 696 919 q 578 875 608 888 q 543 855 558 867 q 510 843 528 843 q 459 860 483 843 q 417 899 435 876 q 394 943 400 922 q 392 981 390 961 q 396 1021 393 1001 l 421 1025 q 450 969 433 996 q 493 943 467 943 q 553 950 514 943 q 637 967 592 957 q 722 989 682 978 q 786 1006 763 1000 q 810 1016 803 1011 q 825 1025 818 1021 q 840 1029 832 1029 q 876 1020 857 1029 q 915 996 896 1011 q 947 964 935 981 q 958 933 958 947 q 948 913 958 921 q 919 894 938 904 q 878 863 901 885 q 808 800 851 840 q 716 713 764 760 q 625 624 668 667 q 560 556 582 582 q 555 543 551 549 q 567 542 558 538 q 676 575 615 560 q 806 590 736 590 q 972 553 896 590 q 1094 445 1049 515 q 1136 279 1139 375 q 1085 121 1135 193 q 941 6 1035 49 q 715 -37 847 -37 z "},"れ":{"ha":1389,"x_min":82,"x_max":1375,"o":"m 1090 43 q 970 88 1017 43 q 924 225 924 133 q 938 381 924 303 q 967 538 953 460 q 982 690 982 615 q 961 790 982 756 q 888 824 940 824 q 749 783 825 824 q 596 673 674 742 q 446 522 518 604 l 447 600 q 557 697 499 649 q 676 785 615 746 q 799 850 738 825 q 917 875 860 875 q 1031 830 989 875 q 1072 688 1072 785 q 1063 592 1072 646 q 1042 476 1054 538 q 1022 353 1031 414 q 1013 239 1013 292 q 1037 158 1013 183 q 1111 133 1061 133 q 1235 159 1179 133 q 1350 240 1290 185 l 1375 215 q 1300 133 1344 172 q 1203 68 1256 93 q 1090 43 1150 43 m 118 78 q 92 92 103 78 q 82 126 82 106 q 88 160 82 146 q 111 196 93 175 q 178 272 136 221 q 269 386 219 322 q 365 516 318 450 q 446 640 411 582 l 443 518 q 381 423 417 475 q 308 317 346 371 q 234 212 271 263 q 168 119 197 161 q 144 90 156 101 q 118 78 133 78 m 431 -69 q 401 -58 413 -69 q 385 -22 390 -47 q 375 22 379 3 q 361 65 371 42 q 340 108 354 82 q 308 167 326 135 q 271 228 290 199 q 235 279 251 257 l 257 310 q 303 247 278 282 q 353 180 329 211 q 389 133 376 149 q 408 143 408 113 q 407 248 408 183 q 406 389 406 313 q 411 539 406 465 q 424 680 417 611 q 440 807 432 749 q 453 911 447 865 q 460 985 460 957 q 453 1017 460 1008 q 428 1032 447 1025 q 396 1042 415 1036 q 354 1051 376 1047 l 353 1079 q 392 1090 371 1085 q 438 1094 414 1094 q 481 1085 458 1094 q 523 1059 504 1075 q 553 1026 542 1043 q 565 993 565 1008 q 555 955 565 972 q 533 896 544 938 q 517 842 526 876 q 499 762 508 807 q 481 665 489 717 q 469 563 474 614 q 466 399 464 482 q 473 249 468 317 q 482 138 478 182 q 487 88 485 111 q 489 43 489 65 q 482 -7 489 19 q 463 -51 475 -33 q 431 -69 450 -69 m 231 583 q 187 599 211 583 q 143 637 163 614 q 117 682 124 660 q 111 713 113 697 q 111 743 110 729 l 136 751 q 169 701 153 718 q 203 685 185 685 q 252 698 217 685 q 329 731 288 711 q 406 767 371 750 q 454 793 440 785 q 475 802 467 800 q 496 799 483 804 q 522 781 507 793 q 546 758 536 769 q 556 738 556 746 q 546 715 556 725 q 524 688 536 704 q 488 643 506 668 q 453 590 471 618 l 458 671 q 471 699 464 682 q 482 732 478 715 q 417 701 451 718 q 353 665 383 683 q 297 633 322 647 q 273 613 283 624 q 253 592 263 601 q 231 583 243 583 z "},"を":{"ha":1389,"x_min":188,"x_max":1231,"o":"m 742 -74 q 539 -49 614 -74 q 431 19 464 -24 q 399 117 399 63 q 424 204 399 160 q 492 292 449 249 q 594 376 536 335 q 718 460 651 418 q 813 510 761 485 q 916 560 864 536 q 1015 606 968 585 q 1097 646 1061 628 q 1117 666 1115 656 q 1104 693 1119 676 q 1076 719 1094 707 q 1036 740 1057 731 l 1053 765 q 1115 749 1092 757 q 1156 728 1139 742 q 1191 699 1174 717 q 1219 660 1208 681 q 1231 619 1231 640 q 1225 600 1231 607 q 1205 588 1219 593 q 1163 574 1190 583 q 1060 540 1117 561 q 941 495 1003 519 q 820 443 879 471 q 713 388 761 415 q 583 304 640 349 q 491 215 525 260 q 457 126 457 171 q 485 63 457 88 q 563 27 513 39 q 678 15 613 15 q 847 26 781 15 q 955 48 913 38 q 1031 58 997 58 q 1071 53 1054 58 q 1096 39 1088 49 q 1104 15 1104 29 q 1095 -13 1104 0 q 1053 -36 1086 -26 q 979 -51 1031 -42 q 864 -67 928 -60 q 742 -74 800 -74 m 728 138 q 697 150 711 138 q 682 190 682 163 q 684 250 682 211 q 688 336 686 289 q 688 429 690 383 q 663 563 685 524 q 583 601 640 601 q 504 579 546 601 q 424 525 463 557 q 356 463 386 493 q 310 409 332 436 q 270 363 289 382 q 235 343 251 344 q 201 358 215 343 q 188 399 188 374 q 221 458 188 428 q 301 538 254 489 q 399 648 353 588 q 483 771 444 708 q 548 891 522 833 q 583 992 574 949 q 584 1019 589 1010 q 558 1038 579 1029 q 526 1049 547 1044 q 481 1057 506 1054 l 481 1083 q 523 1094 501 1089 q 560 1097 544 1099 q 599 1094 576 1097 q 643 1082 621 1090 q 679 1063 665 1074 q 693 1040 693 1053 q 685 1015 693 1026 q 667 981 678 1004 q 639 922 656 958 q 604 853 622 886 q 539 741 575 799 q 444 608 503 683 q 443 599 440 603 q 453 600 446 596 q 525 632 486 617 q 606 647 564 647 q 715 599 675 647 q 763 463 756 551 q 769 369 768 422 q 771 268 771 317 q 771 192 771 219 q 760 152 771 167 q 728 138 750 138 m 396 785 q 307 797 339 785 q 253 840 275 810 q 203 925 232 871 l 232 943 q 281 894 260 914 q 333 865 303 874 q 414 856 363 856 q 515 865 461 856 q 623 888 569 874 q 723 919 676 903 q 803 949 769 936 q 862 978 847 968 q 892 988 876 988 q 933 978 914 988 q 951 950 951 969 q 942 926 951 936 q 913 907 932 917 q 824 871 882 892 q 692 831 765 850 q 541 798 618 811 q 396 785 464 785 z "},"ん":{"ha":1389,"x_min":139,"x_max":1293,"o":"m 925 -44 q 787 1 838 -44 q 736 140 736 46 q 741 260 735 199 q 747 383 747 322 q 726 461 747 429 q 643 493 704 493 q 518 455 578 493 q 409 357 458 417 q 326 229 360 297 q 274 105 294 164 q 239 8 254 46 q 218 -26 231 -14 q 186 -39 206 -39 q 163 -31 174 -39 q 145 -8 151 -22 q 139 25 139 6 q 156 87 139 50 q 201 174 172 124 q 265 286 229 224 q 346 424 301 349 q 437 578 390 500 q 525 726 483 656 q 599 850 567 796 q 646 932 631 904 q 658 974 660 958 q 642 999 656 989 q 603 1021 628 1011 q 560 1036 579 1031 l 569 1064 q 618 1065 590 1067 q 665 1057 646 1064 q 726 1030 697 1050 q 772 985 754 1010 q 789 939 789 961 q 765 905 789 918 q 715 860 742 892 q 660 788 694 833 q 588 686 625 742 q 515 578 550 631 q 460 488 481 525 q 458 475 454 479 q 469 476 461 471 q 572 526 524 510 q 661 543 621 543 q 788 500 746 543 q 832 374 831 457 q 830 267 833 325 q 826 161 826 210 q 853 75 826 104 q 942 46 881 46 q 1048 72 999 46 q 1138 144 1097 99 q 1209 245 1178 189 q 1263 363 1240 301 l 1293 353 q 1230 162 1271 239 q 1138 40 1189 85 q 1032 -25 1088 -6 q 925 -44 976 -44 z "},"ア":{"ha":1389,"x_min":199,"x_max":1225,"o":"m 756 607 q 876 693 815 646 q 987 786 938 740 q 1058 863 1036 832 q 1068 888 1072 882 q 1042 894 1064 894 q 968 888 1022 894 q 841 872 914 882 q 690 851 768 863 q 541 829 611 840 q 425 808 471 818 q 385 795 399 804 q 363 779 372 786 q 336 772 353 772 q 294 788 318 772 q 249 826 271 804 q 217 871 226 849 q 205 910 208 889 q 199 956 201 932 l 228 964 q 267 910 250 933 q 315 888 285 888 q 392 892 338 888 q 520 903 447 896 q 672 918 593 910 q 824 935 751 926 q 951 949 897 943 q 1024 958 1004 956 q 1058 972 1044 961 q 1089 982 1072 982 q 1126 969 1103 982 q 1172 935 1149 956 q 1210 894 1194 915 q 1225 858 1225 874 q 1210 833 1225 843 q 1174 816 1194 824 q 1139 797 1154 808 q 1049 732 1106 772 q 923 648 992 692 q 783 567 854 604 l 756 607 m 261 -28 q 413 90 343 24 q 537 226 482 156 q 630 364 592 297 q 688 484 668 431 q 707 565 707 538 q 674 616 707 597 q 594 649 640 635 l 601 679 q 652 678 632 679 q 690 674 672 678 q 765 654 732 668 q 813 624 797 640 q 828 602 825 613 q 825 571 832 592 q 703 315 774 429 q 531 110 632 201 q 283 -57 431 18 l 261 -28 z "},"シ":{"ha":1389,"x_min":200,"x_max":1257,"o":"m 419 6 q 366 22 399 6 q 303 63 333 39 q 258 108 274 86 q 238 156 246 126 q 228 201 229 186 l 250 214 q 290 171 269 192 q 332 136 310 150 q 378 122 354 122 q 455 147 400 122 q 583 214 510 171 q 742 316 657 257 q 915 447 828 375 q 1083 601 1003 519 q 1225 769 1163 682 l 1257 749 q 1115 547 1197 644 q 933 363 1032 450 q 723 199 833 275 q 499 58 613 122 q 474 38 485 50 q 451 15 463 25 q 419 6 439 6 m 496 483 q 456 499 474 483 q 417 538 439 514 q 358 588 396 561 q 282 644 319 619 q 200 692 244 669 l 214 722 q 310 696 267 708 q 400 664 353 683 q 474 624 443 646 q 520 578 504 603 q 536 526 536 553 q 531 506 536 515 q 517 490 526 496 q 496 483 508 483 m 672 743 q 634 759 653 743 q 592 802 615 775 q 532 858 569 829 q 456 916 496 889 q 386 958 415 943 l 401 990 q 486 965 440 981 q 576 931 532 950 q 654 883 625 907 q 698 837 683 860 q 713 789 713 814 q 701 757 713 771 q 672 743 690 743 z "},"タ":{"ha":1389,"x_min":189,"x_max":1175,"o":"m 197 -32 q 476 142 344 42 q 717 357 608 243 q 903 588 825 471 q 1021 813 982 706 q 1006 835 1031 836 q 938 826 982 833 q 849 812 893 819 q 779 799 804 804 q 737 788 757 793 q 703 782 717 782 q 663 797 686 782 q 615 832 639 813 l 636 865 q 674 860 658 861 q 703 858 689 858 q 769 862 728 858 q 856 871 811 865 q 936 882 900 876 q 986 890 972 888 q 1028 909 1015 896 q 1057 922 1040 922 q 1090 913 1069 922 q 1129 888 1110 903 q 1162 857 1149 874 q 1175 826 1175 840 q 1163 804 1175 814 q 1135 784 1150 794 q 1111 756 1119 774 q 949 499 1038 619 q 750 275 860 379 q 508 86 640 171 q 217 -64 376 1 l 197 -32 m 1010 199 q 978 212 993 199 q 942 251 963 225 q 888 316 921 278 q 803 403 854 354 q 651 521 733 468 q 474 618 569 574 l 493 646 q 619 594 556 622 q 741 535 682 565 q 847 474 800 506 q 948 398 900 438 q 1026 319 996 358 q 1056 249 1056 281 q 1044 212 1057 225 q 1010 199 1032 199 m 189 433 q 317 541 253 479 q 440 671 382 603 q 542 801 497 739 q 613 913 588 864 q 639 986 639 963 q 615 1022 639 1006 q 554 1053 590 1038 l 561 1079 q 601 1079 581 1079 q 644 1074 621 1079 q 701 1054 672 1068 q 750 1024 731 1040 q 769 994 769 1008 q 757 963 769 976 q 729 922 744 950 q 628 775 685 849 q 504 633 571 701 q 364 507 438 565 q 211 404 290 449 l 189 433 z "},"ナ":{"ha":1389,"x_min":151,"x_max":1278,"o":"m 288 -39 q 521 141 432 44 q 653 362 610 238 q 703 651 696 486 q 706 756 706 699 q 703 867 706 814 q 697 953 701 921 q 677 978 696 969 q 633 989 658 986 q 583 994 607 992 l 581 1021 q 628 1040 596 1028 q 681 1051 660 1051 q 746 1038 713 1051 q 803 1008 779 1025 q 826 974 826 990 q 819 949 826 957 q 806 928 813 940 q 799 888 800 917 q 794 766 796 832 q 792 647 793 700 q 736 340 785 476 q 584 103 688 204 q 308 -68 481 1 l 288 -39 m 286 532 q 243 549 268 532 q 197 590 218 567 q 168 629 175 614 q 156 663 158 643 q 151 707 153 683 l 175 717 q 220 659 196 686 q 278 633 244 632 q 340 637 297 633 q 438 646 383 640 q 551 658 493 651 q 660 669 608 664 q 744 678 711 675 q 930 697 858 689 q 1042 712 1001 706 q 1103 722 1083 718 q 1132 727 1124 725 q 1147 729 1140 729 q 1185 724 1163 729 q 1228 710 1207 719 q 1263 690 1249 701 q 1278 663 1278 678 q 1265 634 1278 643 q 1235 625 1253 625 q 1151 626 1210 625 q 992 626 1092 628 q 746 613 893 625 q 622 599 692 607 q 489 581 553 590 q 385 564 425 571 q 331 544 350 557 q 286 532 311 532 z "},"一":{"ha":1389,"x_min":67,"x_max":1332,"o":"m 1168 714 q 1185 701 1168 714 q 1226 666 1201 688 q 1280 620 1251 644 q 1332 574 1308 596 q 1317 557 1329 561 q 1289 553 1306 553 l 81 553 l 67 599 l 1081 599 l 1168 714 z "},"並":{"ha":1389,"x_min":57,"x_max":1332,"o":"m 108 835 l 1089 835 l 1158 921 q 1172 910 1158 921 q 1206 884 1185 900 q 1248 850 1226 868 q 1289 815 1269 832 q 1250 793 1283 793 l 119 793 l 108 835 m 57 -11 l 1128 -11 l 1200 78 q 1213 67 1200 78 q 1247 41 1226 57 q 1290 6 1268 25 q 1332 -29 1313 -12 q 1293 -51 1326 -51 l 69 -51 l 57 -11 m 228 658 q 331 513 293 583 q 385 383 368 443 q 402 278 403 324 q 388 207 401 233 q 354 178 375 181 q 311 199 333 175 q 295 350 311 269 q 256 510 279 431 q 207 651 232 589 l 228 658 m 356 1160 q 478 1085 432 1125 q 545 1008 524 1046 q 569 938 567 969 q 559 886 571 906 q 526 863 547 867 q 479 879 504 860 q 451 974 474 925 q 399 1070 429 1024 q 339 1151 369 1117 l 356 1160 m 939 1163 l 1085 1121 q 1067 1101 1079 1108 q 1032 1094 1056 1093 q 969 1003 1006 1053 q 890 904 932 953 q 807 814 849 856 l 778 814 q 837 924 807 863 q 894 1048 867 986 q 939 1163 921 1110 m 501 835 l 594 835 l 594 -32 l 501 -32 l 501 835 m 785 835 l 878 835 l 878 -32 l 785 -32 l 785 835 m 1088 678 l 1236 636 q 1221 616 1233 625 q 1185 607 1208 607 q 1121 440 1156 525 q 1049 278 1086 356 q 971 136 1011 200 l 947 147 q 997 305 972 215 q 1045 491 1021 394 q 1088 678 1069 588 z "},"体":{"ha":1389,"x_min":51,"x_max":1356,"o":"m 481 1119 q 464 1099 476 1107 q 428 1092 451 1092 q 331 844 386 964 q 210 624 275 725 q 72 443 144 522 l 51 457 q 160 658 107 543 q 258 902 213 772 q 333 1164 303 1032 l 481 1119 m 365 775 q 351 758 361 765 q 322 749 340 751 l 322 -79 q 311 -90 322 -82 q 283 -103 300 -97 q 247 -110 265 -110 l 231 -110 l 231 754 l 272 810 l 365 775 m 910 874 q 1022 614 953 739 q 1178 390 1092 489 q 1356 232 1264 290 l 1351 217 q 1301 196 1324 214 q 1265 144 1278 178 q 1108 328 1181 219 q 978 572 1035 436 q 886 864 922 708 l 910 874 m 840 853 q 663 455 781 640 q 372 129 546 269 l 353 149 q 525 362 449 243 q 658 612 601 481 q 749 875 715 743 l 840 875 l 840 853 m 938 1144 q 924 1121 935 1131 q 888 1107 914 1111 l 888 -78 q 877 -90 888 -83 q 850 -103 867 -97 q 817 -108 833 -108 l 797 -108 l 797 1161 l 938 1144 m 1193 958 q 1205 949 1193 958 q 1235 924 1217 939 q 1275 891 1254 908 q 1313 857 1296 874 q 1276 835 1307 835 l 408 835 l 397 875 l 1129 875 l 1193 958 m 1046 292 q 1064 277 1046 292 q 1106 241 1082 263 q 1149 199 1129 219 q 1114 176 1144 176 l 568 176 l 557 218 l 989 218 l 1046 292 z "},"何":{"ha":1389,"x_min":36,"x_max":1349,"o":"m 456 1010 l 1157 1010 l 1225 1097 q 1238 1087 1225 1097 q 1269 1060 1250 1076 q 1310 1026 1289 1044 q 1349 990 1331 1008 q 1313 968 1343 968 l 467 968 l 456 1010 m 1113 1003 l 1203 1003 l 1203 28 q 1192 -36 1203 -7 q 1148 -84 1182 -65 q 1043 -108 1114 -103 q 1033 -72 1040 -89 q 1008 -44 1025 -56 q 956 -25 989 -33 q 865 -11 922 -17 l 865 10 q 892 8 865 10 q 955 3 918 6 q 1026 0 992 1 q 1072 -1 1060 -1 q 1104 6 1096 -1 q 1113 31 1113 14 l 1113 1003 m 547 351 l 867 351 l 867 311 l 547 311 l 547 351 m 508 750 l 508 792 l 508 792 l 601 750 l 879 750 l 879 708 l 594 708 l 594 218 q 584 206 594 214 q 557 193 574 199 q 522 188 540 188 l 508 188 l 508 750 m 832 750 l 817 750 l 867 807 l 982 718 q 958 702 975 710 q 919 689 942 694 l 919 236 q 906 228 918 235 q 876 218 893 222 q 846 214 860 214 l 832 214 l 832 750 m 228 754 l 267 804 l 361 769 q 349 753 358 760 q 319 743 339 747 l 319 -78 q 308 -88 319 -81 q 280 -102 296 -96 q 244 -108 264 -108 l 228 -108 l 228 754 m 357 1164 l 500 1118 q 482 1099 494 1107 q 446 1092 469 1090 q 338 846 399 964 q 205 628 276 728 q 54 454 133 529 l 36 468 q 157 663 97 551 q 269 902 217 774 q 357 1164 321 1031 z "},"倣":{"ha":1389,"x_min":43,"x_max":1363,"o":"m 1146 864 l 1243 864 q 1204 553 1232 696 q 1120 288 1176 410 q 967 68 1064 167 q 724 -110 871 -31 l 710 -92 q 915 97 833 -4 q 1046 317 997 199 q 1117 572 1094 436 q 1146 864 1140 708 m 972 1163 l 1115 1135 q 1101 1112 1113 1121 q 1067 1101 1089 1103 q 1008 872 1043 985 q 929 661 974 760 q 831 486 885 563 l 808 499 q 880 692 847 585 q 937 921 913 800 q 972 1163 961 1042 m 317 886 l 713 886 l 774 967 q 792 951 774 967 q 837 913 811 935 q 883 869 863 890 q 872 853 881 858 q 847 847 863 847 l 328 847 l 317 886 m 540 1156 l 674 1143 q 663 1120 672 1129 q 628 1107 653 1111 l 628 865 l 540 865 l 540 1156 m 511 664 l 746 664 l 746 624 l 501 624 l 511 664 m 706 664 l 690 664 l 742 719 l 844 635 q 824 621 838 626 q 789 613 811 615 q 776 346 785 458 q 755 156 768 233 q 724 33 742 79 q 686 -37 707 -14 q 627 -75 661 -62 q 556 -86 593 -87 q 552 -50 556 -67 q 536 -24 549 -33 q 503 -6 526 -14 q 453 6 481 1 l 453 31 q 522 26 483 29 q 579 22 560 22 q 625 38 607 22 q 663 130 647 58 q 689 333 678 201 q 706 664 700 465 m 194 756 l 235 810 l 322 776 q 309 760 319 767 q 281 751 299 754 l 281 -79 q 269 -89 281 -82 q 242 -102 258 -96 q 210 -108 226 -108 l 194 -108 l 194 756 m 276 1164 l 415 1124 q 364 1094 408 1094 q 283 860 329 975 q 181 643 236 744 q 63 464 125 542 l 43 476 q 133 675 89 563 q 214 913 176 788 q 276 1164 251 1039 m 944 864 l 1164 864 l 1228 944 q 1239 935 1228 944 q 1268 910 1250 925 q 1306 877 1286 894 q 1342 844 1325 860 q 1304 822 1336 822 l 944 822 l 944 864 m 946 788 q 992 539 963 658 q 1070 316 1022 419 q 1190 131 1118 213 q 1363 -6 1263 49 l 1360 -17 q 1319 -51 1335 -26 q 1296 -110 1303 -75 q 1133 54 1199 -39 q 1025 259 1067 147 q 960 494 983 371 q 924 750 938 618 l 946 788 m 472 874 l 567 874 q 556 597 565 731 q 522 339 546 463 q 451 103 499 215 q 326 -108 404 -8 l 308 -93 q 398 126 364 13 q 449 362 432 240 q 472 612 467 483 q 472 874 476 740 z "},"傷":{"ha":1389,"x_min":46,"x_max":1340,"o":"m 649 750 l 1128 750 l 1128 708 l 649 708 l 649 750 m 647 607 l 1125 607 l 1125 568 l 647 568 l 647 607 m 421 471 l 1157 471 l 1222 551 q 1234 542 1222 551 q 1264 518 1246 533 q 1303 486 1282 503 q 1340 453 1324 469 q 1304 431 1336 431 l 432 431 l 421 471 m 628 336 l 1236 336 l 1236 296 l 600 296 l 628 336 m 679 471 l 768 471 l 768 449 q 615 268 710 349 q 399 131 519 188 l 383 153 q 556 298 481 217 q 679 471 632 379 m 783 336 l 869 336 l 869 315 q 699 116 806 204 q 461 -33 593 28 l 446 -11 q 643 146 556 56 q 783 336 731 236 m 988 336 l 1081 336 l 1081 315 q 918 70 1024 175 q 658 -108 813 -35 l 644 -85 q 856 101 769 -7 q 988 336 942 208 m 633 1167 l 767 1117 q 749 1099 761 1107 q 714 1093 736 1092 q 583 888 660 979 q 424 740 507 797 l 404 756 q 492 867 450 803 q 571 1008 535 932 q 633 1167 607 1085 m 1189 336 l 1175 336 l 1225 389 l 1326 307 q 1272 286 1311 290 q 1231 52 1258 140 q 1161 -68 1204 -36 q 1103 -96 1138 -86 q 1029 -106 1068 -106 q 1025 -72 1029 -87 q 1006 -46 1021 -57 q 965 -28 994 -36 q 900 -17 935 -21 l 901 7 q 958 3 926 6 q 1019 -1 990 0 q 1060 -3 1047 -3 q 1108 8 1090 -3 q 1156 114 1133 29 q 1189 336 1178 199 m 231 758 l 272 814 l 361 781 q 348 765 358 771 q 321 756 338 758 l 321 -78 q 308 -88 319 -81 q 281 -102 297 -96 q 246 -108 264 -108 l 231 -108 l 231 758 m 350 1163 l 494 1117 q 478 1097 490 1106 q 442 1090 465 1089 q 337 847 396 964 q 210 630 278 729 q 65 454 142 531 l 46 468 q 160 664 104 551 q 266 904 217 776 q 350 1163 315 1032 m 607 1025 l 1121 1025 l 1188 1108 q 1199 1099 1188 1108 q 1231 1074 1211 1089 q 1272 1040 1250 1058 q 1310 1006 1293 1022 q 1274 983 1304 983 l 607 983 l 607 1025 m 1089 888 l 1076 888 l 1125 940 l 1232 860 q 1179 835 1218 842 l 1179 556 q 1167 543 1179 550 q 1137 530 1154 536 q 1103 524 1119 524 l 1089 524 l 1089 888 m 597 888 l 597 932 l 597 932 l 696 888 l 1135 888 l 1135 849 l 688 849 l 688 542 q 676 531 688 538 q 648 518 665 524 q 611 513 631 513 l 597 513 l 597 888 z "},"全":{"ha":1389,"x_min":49,"x_max":1354,"o":"m 290 625 l 940 625 l 1004 700 q 1016 691 1004 700 q 1046 668 1028 682 q 1084 638 1064 654 q 1121 606 1104 621 q 1083 585 1117 585 l 301 585 l 290 625 m 268 322 l 982 322 l 1049 400 q 1061 390 1049 400 q 1092 366 1074 381 q 1132 335 1111 351 q 1171 303 1153 318 q 1135 281 1165 281 l 279 281 l 268 322 m 92 -17 l 1114 -17 l 1183 71 q 1196 60 1183 71 q 1229 34 1208 50 q 1272 0 1250 18 q 1313 -36 1294 -18 q 1300 -51 1310 -46 q 1275 -57 1290 -57 l 103 -57 l 92 -17 m 644 625 l 738 625 l 738 -33 l 644 -33 l 644 625 m 728 1089 q 604 931 678 1011 q 442 774 531 850 q 256 631 354 697 q 60 517 158 565 l 49 538 q 229 667 136 590 q 406 831 322 743 q 552 1008 489 919 q 644 1174 615 1097 l 810 1132 q 794 1115 807 1121 q 754 1106 781 1110 q 867 976 801 1039 q 1010 857 932 914 q 1176 752 1089 800 q 1354 664 1264 704 l 1351 644 q 1314 629 1332 640 q 1283 602 1296 618 q 1267 569 1271 586 q 1050 711 1154 629 q 863 890 946 793 q 728 1089 779 986 z "},"分":{"ha":1389,"x_min":54,"x_max":1351,"o":"m 249 617 l 1043 617 l 1043 576 l 261 576 l 249 617 m 994 617 l 979 617 l 1033 675 l 1140 586 q 1119 574 1133 579 q 1083 565 1106 568 q 1058 285 1075 413 q 1017 73 1042 158 q 958 -44 993 -12 q 889 -86 931 -72 q 794 -100 847 -100 q 789 -61 796 -79 q 767 -32 782 -43 q 700 -9 747 -21 q 606 8 653 3 l 607 33 q 690 26 643 31 q 778 18 738 21 q 836 15 819 15 q 870 19 858 15 q 894 32 882 22 q 928 100 913 49 q 957 230 944 151 q 979 408 969 308 q 994 617 989 507 m 556 617 l 657 617 q 638 470 651 546 q 592 318 624 394 q 504 167 561 242 q 356 24 447 93 q 128 -107 264 -46 l 110 -85 q 348 88 260 -3 q 479 269 436 178 q 537 449 522 361 q 556 617 551 538 m 488 1163 l 628 1108 q 613 1090 624 1096 q 575 1088 601 1085 q 458 892 531 994 q 289 699 386 790 q 68 540 192 607 l 54 558 q 244 736 158 635 q 391 949 329 838 q 488 1163 453 1061 m 844 1167 q 933 1010 878 1086 q 1056 869 988 935 q 1201 750 1125 803 q 1351 660 1278 697 l 1347 644 q 1297 624 1319 643 q 1263 572 1275 606 q 1082 724 1168 635 q 928 922 996 813 q 821 1154 860 1031 l 844 1167 z "},"前":{"ha":1389,"x_min":56,"x_max":1335,"o":"m 56 904 l 1138 904 l 1207 990 q 1219 981 1207 990 q 1252 955 1232 971 q 1294 920 1272 939 q 1335 885 1315 901 q 1297 864 1329 864 l 68 864 l 56 904 m 817 739 l 954 724 q 942 700 953 710 q 903 688 931 690 l 903 131 q 892 117 903 125 q 866 105 882 110 q 833 100 850 100 l 817 100 l 817 739 m 540 719 l 526 719 l 572 776 l 689 689 q 665 674 682 682 q 628 663 649 665 l 628 15 q 619 -44 628 -18 q 585 -85 611 -69 q 501 -107 558 -101 q 495 -72 500 -87 q 479 -44 490 -56 q 446 -27 467 -35 q 389 -15 425 -19 l 389 6 q 404 5 389 6 q 442 3 419 4 q 485 0 464 1 q 514 -1 506 -1 q 535 6 529 -1 q 540 25 540 13 l 540 719 m 1115 772 l 1251 757 q 1239 732 1250 742 q 1203 719 1228 722 l 1203 22 q 1194 -41 1203 -14 q 1154 -84 1185 -68 q 1058 -107 1124 -100 q 1049 -72 1056 -87 q 1028 -44 1042 -56 q 984 -26 1013 -33 q 908 -12 956 -18 l 908 10 q 931 8 908 10 q 984 4 953 7 q 1043 0 1015 1 q 1082 -1 1071 -1 q 1108 5 1101 -1 q 1115 28 1115 11 l 1115 772 m 928 1164 l 1074 1121 q 1019 1096 1064 1094 q 959 1024 994 1063 q 883 948 924 986 q 804 876 843 910 l 776 876 q 831 967 803 917 q 884 1069 858 1018 q 928 1164 910 1121 m 344 1160 q 469 1104 421 1136 q 539 1039 517 1072 q 564 976 561 1006 q 556 928 567 947 q 524 904 544 908 q 476 918 503 900 q 446 1001 469 958 q 392 1082 422 1043 q 329 1150 361 1121 l 344 1160 m 183 719 l 183 765 l 183 765 l 278 719 l 586 719 l 586 679 l 271 679 l 271 -75 q 261 -88 271 -81 q 235 -101 251 -96 q 199 -107 218 -107 l 183 -107 l 183 719 m 226 511 l 589 511 l 589 469 l 226 469 l 226 511 m 226 292 l 589 292 l 589 251 l 226 251 l 226 292 z "},"十":{"ha":1389,"x_min":61,"x_max":1331,"o":"m 644 1158 l 792 1143 q 779 1117 790 1128 q 739 1101 768 1106 l 739 -68 q 727 -83 739 -74 q 698 -99 715 -93 q 663 -106 681 -106 l 644 -106 l 644 1158 m 61 656 l 1122 656 l 1196 751 q 1210 740 1196 751 q 1244 712 1224 729 q 1289 674 1265 694 q 1331 638 1313 654 q 1294 615 1325 615 l 74 615 l 61 656 z "},"千":{"ha":1389,"x_min":67,"x_max":1331,"o":"m 1183 1050 q 1157 1043 1175 1043 q 1111 1053 1139 1043 q 910 1015 1021 1033 q 676 981 799 996 q 424 956 553 967 q 171 944 296 946 l 167 972 q 415 1001 286 982 q 668 1043 544 1019 q 899 1094 792 1067 q 1081 1147 1006 1121 l 1183 1050 m 740 -78 q 731 -89 740 -81 q 703 -103 721 -97 q 661 -108 685 -108 l 646 -108 l 646 1011 l 740 1028 l 740 -78 m 1196 700 q 1209 689 1196 700 q 1244 661 1222 678 q 1288 625 1265 644 q 1331 588 1311 606 q 1293 565 1325 565 l 78 565 l 67 607 l 1122 607 l 1196 700 z "},"声":{"ha":1389,"x_min":56,"x_max":1306,"o":"m 244 644 l 244 658 l 244 692 l 353 644 l 335 644 l 335 440 q 327 303 335 375 q 294 157 319 231 q 215 14 268 83 q 72 -112 163 -56 l 56 -96 q 178 72 138 -17 q 231 254 218 161 q 244 439 244 347 l 244 644 m 286 363 l 1096 363 l 1096 322 l 286 322 l 286 363 m 286 644 l 1096 644 l 1096 604 l 286 604 l 286 644 m 82 1014 l 1107 1014 l 1176 1096 q 1189 1087 1176 1096 q 1222 1063 1201 1078 q 1264 1030 1242 1047 q 1306 996 1286 1013 q 1268 974 1300 974 l 94 974 l 82 1014 m 167 813 l 1060 813 l 1128 896 q 1140 886 1128 896 q 1171 861 1151 876 q 1212 828 1190 846 q 1250 794 1233 811 q 1215 772 1244 772 l 179 772 l 167 813 m 646 1164 l 789 1150 q 776 1126 788 1136 q 738 1111 764 1115 l 738 796 l 646 796 l 646 1164 m 650 644 l 738 644 l 738 343 l 650 343 l 650 644 m 1049 644 l 1036 644 l 1085 699 l 1193 615 q 1172 601 1188 608 q 1140 590 1157 593 l 1140 260 q 1126 249 1140 256 q 1095 238 1113 243 q 1061 233 1078 233 l 1049 233 l 1049 644 z "},"夢":{"ha":1389,"x_min":56,"x_max":1335,"o":"m 194 507 l 1238 507 l 1238 465 l 194 465 l 194 507 m 185 572 l 208 572 q 225 456 229 507 q 202 369 221 404 q 160 317 183 335 q 126 302 144 306 q 90 303 107 299 q 65 324 74 308 q 67 364 56 344 q 99 394 78 383 q 161 466 135 417 q 185 572 188 515 m 1193 507 l 1178 507 l 1232 563 l 1335 464 q 1314 455 1326 457 q 1282 451 1301 453 q 1211 382 1254 421 q 1133 319 1168 343 l 1114 329 q 1142 385 1126 353 q 1172 450 1157 417 q 1193 507 1186 483 m 290 649 l 1107 649 l 1107 607 l 290 607 l 290 649 m 1061 863 l 1047 863 l 1099 915 l 1208 833 q 1185 817 1201 825 q 1150 806 1169 810 l 1150 586 q 1138 575 1150 582 q 1108 563 1125 568 q 1075 557 1090 557 l 1061 557 l 1061 863 m 247 863 l 247 906 l 247 906 l 343 863 l 1107 863 l 1107 822 l 335 822 l 335 568 q 324 558 335 565 q 295 546 313 551 q 260 540 278 540 l 247 540 l 247 863 m 60 1028 l 464 1028 l 464 1164 l 603 1151 q 590 1127 601 1138 q 553 1114 579 1117 l 553 1028 l 828 1028 l 828 1164 l 968 1151 q 956 1127 967 1138 q 918 1114 944 1117 l 918 1028 l 1146 1028 l 1211 1108 q 1231 1092 1211 1108 q 1279 1053 1251 1076 q 1329 1010 1307 1031 q 1292 988 1324 988 l 918 988 l 918 910 q 897 895 918 904 q 844 886 876 886 l 828 886 l 828 988 l 553 988 l 553 904 q 528 890 553 899 q 479 882 504 882 l 464 882 l 464 988 l 68 988 l 60 1028 m 514 353 l 992 353 l 992 313 l 468 313 l 514 353 m 517 863 l 600 863 l 600 622 l 517 622 l 517 863 m 789 863 l 872 863 l 872 622 l 789 622 l 789 863 m 938 353 l 929 353 l 982 404 l 1083 317 q 1060 305 1075 308 q 1021 300 1044 301 q 798 101 924 182 q 507 -29 672 21 q 126 -108 342 -79 l 117 -82 q 462 10 308 -44 q 733 148 615 65 q 938 353 851 231 m 399 265 q 528 239 476 257 q 609 197 581 221 q 649 151 638 174 q 655 112 660 129 q 633 88 650 94 q 593 92 617 82 q 540 151 575 121 q 465 207 506 181 q 386 249 424 233 l 399 265 m 667 419 q 531 308 611 365 q 355 203 451 251 q 150 121 258 154 l 139 140 q 319 239 233 182 q 474 358 406 296 q 585 478 543 421 l 728 442 q 710 425 724 431 q 667 419 697 419 z "},"妬":{"ha":1389,"x_min":53,"x_max":1335,"o":"m 760 68 l 1203 68 l 1203 28 l 760 28 l 760 68 m 765 592 l 1208 592 l 1208 550 l 765 550 l 765 592 m 544 1054 l 1150 1054 l 1215 1138 q 1227 1128 1215 1138 q 1258 1103 1239 1118 q 1297 1070 1276 1088 q 1335 1038 1318 1053 q 1299 1015 1331 1015 l 556 1015 l 544 1054 m 867 1054 l 968 1054 l 968 1033 q 801 612 914 810 q 521 263 689 414 l 501 281 q 663 510 592 383 q 786 777 735 638 q 867 1054 838 917 m 804 592 l 804 -75 q 784 -94 804 -82 q 731 -106 764 -106 l 717 -106 l 717 554 l 757 618 l 821 592 l 804 592 m 1154 592 l 1140 592 l 1192 649 l 1304 561 q 1281 545 1297 553 q 1246 533 1265 538 l 1246 -62 q 1232 -76 1246 -67 q 1201 -90 1218 -85 q 1168 -96 1183 -96 l 1154 -96 l 1154 592 m 54 828 l 521 828 l 521 788 l 67 788 l 54 828 m 281 1158 l 414 1131 q 399 1108 410 1117 q 361 1099 388 1099 q 335 967 351 1044 q 298 801 318 890 q 255 618 278 711 q 209 440 232 525 q 165 286 186 354 q 127 276 153 276 q 74 283 101 275 q 119 431 94 344 q 168 618 143 518 q 216 819 193 718 q 256 1008 239 919 q 281 1158 272 1096 m 175 419 q 368 333 292 381 q 488 238 444 286 q 549 147 532 189 q 560 75 565 104 q 535 37 556 46 q 486 46 514 28 q 438 145 472 94 q 358 244 404 196 q 260 333 311 292 q 161 406 208 375 l 175 419 m 454 828 l 440 828 l 494 885 l 596 793 q 576 781 588 785 q 543 775 565 778 q 502 524 529 647 q 425 288 475 400 q 288 81 375 176 q 68 -86 201 -14 l 53 -65 q 238 110 164 11 q 355 324 311 208 q 422 566 399 439 q 454 828 444 693 z "},"始":{"ha":1389,"x_min":43,"x_max":1339,"o":"m 731 50 l 1203 50 l 1203 10 l 731 10 l 731 50 m 1065 935 q 1214 833 1157 885 q 1299 733 1271 781 q 1333 646 1328 685 q 1329 583 1339 607 q 1298 553 1319 558 q 1250 569 1276 549 q 1208 692 1240 626 q 1133 818 1175 757 q 1050 925 1090 879 l 1065 935 m 878 1164 l 1031 1124 q 1014 1102 1026 1111 q 978 1094 1001 1093 q 919 951 954 1031 q 841 792 883 872 q 754 642 799 713 l 728 642 q 785 810 757 718 q 838 994 814 901 q 878 1164 861 1086 m 685 451 l 685 496 l 788 451 l 1161 451 l 1207 507 l 1308 428 q 1289 414 1301 419 q 1256 406 1276 408 l 1256 -72 q 1234 -88 1256 -76 q 1181 -100 1213 -100 l 1165 -100 l 1165 413 l 771 413 l 771 -78 q 751 -94 771 -83 q 699 -106 732 -106 l 685 -106 l 685 451 m 585 689 q 746 694 643 689 q 979 706 849 699 q 1250 721 1110 713 l 1251 699 q 999 653 1144 678 q 660 597 854 628 q 643 579 653 586 q 622 569 633 572 l 585 689 m 51 828 l 553 828 l 553 788 l 64 788 l 51 828 m 301 1158 l 433 1129 q 419 1107 431 1115 q 381 1099 407 1099 q 351 966 369 1044 q 309 797 332 888 q 260 612 286 706 q 209 432 233 518 q 161 276 185 346 q 122 266 147 267 q 69 274 97 265 q 119 423 92 335 q 174 613 146 511 q 227 815 201 714 q 272 1006 253 917 q 301 1158 292 1096 m 174 408 q 378 314 296 365 q 506 211 460 263 q 572 115 553 160 q 585 40 590 71 q 560 -1 581 10 q 510 7 540 -11 q 458 115 496 60 q 372 221 421 169 q 267 317 322 272 q 158 393 211 361 l 174 408 m 478 828 l 464 828 l 517 885 l 618 793 q 599 781 611 785 q 565 775 588 778 q 522 515 550 640 q 439 276 493 389 q 292 70 385 164 q 57 -93 200 -24 l 43 -74 q 244 99 165 1 q 371 312 324 196 q 442 558 418 428 q 478 828 467 689 z "},"嫉":{"ha":1389,"x_min":47,"x_max":1342,"o":"m 486 931 q 575 854 543 893 q 620 781 607 815 q 632 718 633 746 q 619 674 631 690 q 589 656 607 657 q 553 674 571 656 q 541 760 553 714 q 510 848 529 806 q 468 922 490 890 l 486 931 m 725 449 l 1172 449 l 1232 525 q 1251 510 1232 525 q 1295 473 1269 494 q 1342 431 1321 451 q 1306 408 1336 408 l 736 408 l 725 449 m 858 910 l 990 878 q 976 858 988 867 q 942 849 964 849 q 862 649 910 740 q 751 494 814 557 l 729 506 q 809 688 775 582 q 858 910 843 794 m 972 724 l 1060 724 q 1051 510 1057 610 q 1024 322 1044 410 q 957 156 1003 233 q 831 15 911 79 q 626 -106 751 -50 l 607 -82 q 785 41 717 -25 q 892 183 854 107 q 947 344 931 258 q 967 524 964 429 q 972 724 971 618 m 1044 431 q 1091 271 1060 354 q 1183 110 1122 188 q 1340 -28 1243 32 l 1339 -44 q 1288 -63 1307 -49 q 1263 -115 1269 -78 q 1157 1 1200 -65 q 1086 142 1114 68 q 1043 288 1058 215 q 1021 424 1028 361 l 1044 431 m 938 1163 l 1072 1150 q 1060 1127 1071 1136 q 1026 1114 1050 1118 l 1026 961 l 938 961 l 938 1163 m 688 978 l 1165 978 l 1228 1057 q 1247 1041 1228 1057 q 1293 1003 1267 1025 q 1342 960 1319 981 q 1307 938 1336 938 l 688 938 l 688 978 m 631 978 l 631 992 l 631 1022 l 729 978 l 713 978 l 713 585 q 704 403 713 496 q 669 219 696 310 q 587 46 642 128 q 439 -106 532 -36 l 419 -87 q 556 113 511 4 q 616 340 601 221 q 631 585 631 458 l 631 978 m 422 399 q 518 466 454 419 q 650 567 582 513 l 663 550 q 601 465 639 518 q 515 350 564 413 q 513 326 517 338 q 500 308 508 315 l 422 399 m 839 733 l 1139 733 l 1197 808 q 1216 793 1197 808 q 1260 757 1235 778 q 1306 715 1285 736 q 1269 693 1301 693 l 839 693 l 839 733 m 50 867 l 435 867 l 435 825 l 61 825 l 50 867 m 208 1163 l 338 1149 q 325 1125 336 1135 q 288 1113 314 1115 q 269 980 281 1057 q 244 813 258 903 q 215 631 231 724 q 185 453 200 539 q 154 300 169 367 q 117 288 142 290 q 64 293 93 286 q 98 438 81 351 q 133 625 115 525 q 166 825 151 725 q 192 1013 181 925 q 208 1163 204 1101 m 147 426 q 313 338 247 383 q 415 248 378 292 q 464 169 451 204 q 471 109 476 133 q 447 78 465 85 q 403 89 428 72 q 340 203 385 143 q 238 319 294 263 q 131 414 182 375 l 147 426 m 365 867 l 353 867 l 406 919 l 503 833 q 451 813 490 817 q 426 560 443 686 q 369 318 408 435 q 258 99 331 201 q 63 -85 185 -3 l 47 -65 q 208 125 147 19 q 301 351 269 231 q 347 602 333 472 q 365 867 361 732 z "},"宴":{"ha":1389,"x_min":57,"x_max":1331,"o":"m 61 331 l 1138 331 l 1204 414 q 1217 405 1204 414 q 1249 380 1231 396 q 1289 347 1268 364 q 1328 313 1310 329 q 1290 290 1322 290 l 72 290 l 61 331 m 913 331 l 1015 331 l 1015 310 q 885 128 964 203 q 692 6 806 54 q 422 -68 578 -42 q 61 -107 267 -94 l 57 -81 q 460 -9 288 -54 q 745 117 632 36 q 913 331 858 197 m 590 474 l 714 443 q 697 422 710 429 q 657 417 683 415 q 601 340 638 386 q 524 241 565 293 q 440 140 482 189 q 367 53 399 90 q 324 56 349 50 q 279 76 300 61 q 360 165 315 111 q 449 276 404 218 q 531 387 494 335 q 590 474 568 439 m 388 513 l 1007 513 l 1007 472 l 388 472 l 388 513 m 388 681 l 1007 681 l 1007 639 l 388 639 l 388 681 m 343 843 l 343 886 l 343 886 l 440 843 l 1011 843 l 1011 803 l 433 803 l 433 426 q 422 416 433 424 q 394 403 411 408 q 357 397 376 397 l 343 397 l 343 843 m 964 843 l 951 843 l 1000 896 l 1107 815 q 1087 800 1101 808 q 1054 789 1072 792 l 1054 433 q 1041 422 1054 428 q 1010 410 1028 415 q 978 404 993 404 l 964 404 l 964 843 m 233 1001 l 1233 1001 l 1233 961 l 233 961 l 233 1001 m 647 1163 l 790 1149 q 777 1124 789 1135 q 739 1111 765 1114 l 739 979 l 647 979 l 647 1163 m 238 1076 l 261 1078 q 274 943 282 1000 q 241 849 265 886 q 188 792 217 811 q 149 778 169 782 q 110 781 128 775 q 86 803 93 788 q 88 844 76 825 q 122 876 100 864 q 179 920 153 890 q 222 990 206 950 q 238 1076 239 1031 m 1181 1001 l 1165 1001 l 1224 1063 l 1331 960 q 1309 949 1322 951 q 1276 946 1296 947 q 1206 872 1250 911 q 1125 807 1161 833 l 1107 817 q 1135 876 1121 843 q 1162 944 1149 910 q 1181 1001 1175 978 m 382 154 q 753 118 600 142 q 1003 66 906 94 q 1153 8 1100 38 q 1224 -46 1207 -21 q 1234 -87 1242 -71 q 1203 -108 1226 -104 q 1153 -96 1181 -111 q 963 -10 1074 -50 q 706 65 851 31 q 378 126 560 100 l 382 154 z "},"届":{"ha":1389,"x_min":58,"x_max":1279,"o":"m 272 1081 l 1175 1081 l 1175 1040 l 272 1040 l 272 1081 m 274 815 l 1176 815 l 1176 775 l 274 775 l 274 815 m 1119 1081 l 1106 1081 l 1156 1136 l 1269 1050 q 1247 1034 1263 1042 q 1211 1022 1231 1026 l 1211 733 q 1197 724 1211 731 q 1166 711 1183 717 q 1135 706 1149 706 l 1119 706 l 1119 1081 m 231 1081 l 231 1094 l 231 1128 l 340 1081 l 322 1081 l 322 721 q 315 517 322 625 q 285 300 308 410 q 214 87 263 190 q 81 -106 165 -17 l 58 -90 q 172 164 136 29 q 219 440 208 299 q 231 719 231 582 l 231 1081 m 1131 547 l 1117 547 l 1167 606 l 1279 517 q 1257 501 1272 508 q 1219 490 1242 494 l 1219 -72 q 1206 -84 1219 -76 q 1176 -97 1193 -92 q 1143 -103 1158 -103 l 1131 -103 l 1131 547 m 432 31 l 1185 31 l 1185 -11 l 432 -11 l 432 31 m 432 292 l 1185 292 l 1185 251 l 432 251 l 432 292 m 390 547 l 390 593 l 390 593 l 486 547 l 1188 547 l 1188 508 l 478 508 l 478 -75 q 467 -87 478 -79 q 439 -101 456 -96 q 404 -107 422 -107 l 390 -107 l 390 547 m 754 743 l 888 728 q 876 706 885 715 q 843 693 867 696 l 843 -3 l 754 -3 l 754 743 z "},"幾":{"ha":1389,"x_min":49,"x_max":1336,"o":"m 61 465 l 1149 465 l 1213 544 q 1233 529 1213 544 q 1281 491 1253 514 q 1332 447 1308 468 q 1294 425 1326 425 l 74 425 l 61 465 m 611 1160 l 753 1144 q 740 1120 751 1131 q 704 1106 729 1110 q 720 739 701 914 q 788 419 739 564 q 929 171 838 275 q 1167 15 1021 67 q 1204 8 1193 6 q 1225 29 1215 10 q 1244 76 1233 49 q 1267 134 1256 103 q 1286 194 1278 165 l 1304 192 l 1283 -11 q 1328 -55 1321 -40 q 1329 -82 1336 -69 q 1288 -108 1318 -106 q 1219 -100 1258 -111 q 1136 -71 1179 -89 q 917 59 1008 -24 q 767 256 826 142 q 673 510 707 369 q 625 815 639 651 q 611 1160 611 978 m 940 594 q 1030 573 996 588 q 1079 540 1064 558 q 1096 506 1094 522 q 1088 477 1097 489 q 1062 463 1078 465 q 1026 472 1046 460 q 985 531 1014 500 q 926 582 956 563 l 940 594 m 1064 407 l 1183 347 q 1166 333 1178 338 q 1131 333 1154 328 q 974 160 1071 244 q 751 8 878 75 q 472 -99 624 -60 l 463 -76 q 715 48 597 -28 q 923 217 833 124 q 1064 407 1013 310 m 113 1022 q 226 975 183 1001 q 291 922 269 949 q 317 870 313 894 q 313 829 322 846 q 286 809 304 813 q 246 819 268 806 q 210 887 235 851 q 155 955 185 922 q 97 1010 125 988 l 113 1022 m 440 792 q 538 722 501 758 q 590 653 574 686 q 605 595 606 621 q 593 553 604 569 q 563 537 582 538 q 525 554 544 536 q 504 632 521 590 q 466 714 488 674 q 422 783 444 754 l 440 792 m 354 311 q 499 269 442 296 q 589 213 557 243 q 631 156 621 183 q 635 108 642 128 q 609 82 628 89 q 565 88 590 75 q 511 164 549 125 q 428 238 474 203 q 342 296 383 274 l 354 311 m 457 1015 l 569 960 q 550 944 564 950 q 513 942 536 938 q 431 834 479 894 q 329 713 382 774 q 225 601 276 653 l 190 601 q 283 733 235 661 q 378 879 332 806 q 457 1015 424 953 m 88 638 q 201 645 131 640 q 360 657 271 650 q 543 671 449 664 l 544 647 q 388 611 481 632 q 171 564 296 590 q 157 543 165 550 q 139 533 149 536 l 88 638 m 758 1014 q 868 973 826 997 q 930 923 910 949 q 953 874 950 897 q 947 834 957 850 q 919 814 938 818 q 879 824 901 810 q 849 888 871 854 q 799 951 826 921 q 744 1003 771 982 l 758 1014 m 1094 824 q 1204 762 1163 794 q 1265 698 1246 729 q 1285 641 1283 667 q 1277 599 1288 615 q 1249 580 1267 582 q 1210 594 1231 578 q 1181 670 1201 631 q 1132 748 1160 710 q 1079 814 1104 786 l 1094 824 m 1104 1025 l 1222 974 q 1202 956 1217 961 q 1164 954 1188 950 q 1076 847 1128 906 q 968 731 1024 789 q 860 625 913 674 l 825 625 q 922 751 871 681 q 1021 893 972 821 q 1104 1025 1069 965 m 969 1161 l 1099 1121 q 1044 1096 1088 1092 q 972 1014 1015 1058 q 888 935 929 969 l 857 935 q 917 1045 885 981 q 969 1161 949 1110 m 328 1158 l 453 1111 q 435 1094 449 1100 q 400 1089 422 1088 q 328 1008 369 1053 q 243 925 286 963 l 213 925 q 274 1039 242 972 q 328 1158 307 1106 m 753 672 q 873 680 797 675 q 1042 692 949 685 q 1233 708 1136 700 l 1236 685 q 1073 647 1171 669 q 842 597 975 625 q 828 579 836 586 q 810 569 821 572 l 753 672 m 307 465 l 404 465 q 387 310 400 388 q 340 158 374 232 q 242 18 307 85 q 67 -106 176 -49 l 49 -83 q 189 44 138 -24 q 265 183 240 113 q 297 324 289 253 q 307 465 306 396 z "},"心":{"ha":1389,"x_min":39,"x_max":1343,"o":"m 229 706 l 253 707 q 272 490 282 583 q 233 334 263 397 q 172 238 204 271 q 130 203 153 217 q 86 190 107 190 q 54 204 65 190 q 46 247 39 224 q 71 289 53 269 q 149 384 113 322 q 208 529 186 446 q 229 706 231 613 m 454 1132 q 640 1083 564 1111 q 765 1022 717 1054 q 838 960 814 990 q 868 903 863 929 q 865 858 874 876 q 837 835 856 840 q 794 843 818 831 q 724 928 772 881 q 606 1024 676 976 q 446 1111 536 1071 l 454 1132 m 1049 722 q 1196 619 1138 674 q 1286 508 1254 564 q 1331 403 1318 453 q 1339 313 1343 353 q 1319 250 1335 274 q 1283 224 1304 226 q 1242 247 1263 222 q 1219 393 1239 311 q 1156 559 1200 475 q 1036 708 1111 643 l 1049 722 m 431 849 l 568 833 q 556 810 567 819 q 522 796 544 800 l 522 71 q 538 35 522 46 q 607 25 553 25 l 789 25 q 897 26 851 25 q 960 29 942 28 q 982 37 975 32 q 994 54 989 42 q 1017 143 1003 75 q 1046 296 1031 211 l 1064 296 l 1067 43 q 1102 25 1093 35 q 1111 1 1111 15 q 1087 -37 1111 -22 q 992 -57 1063 -51 q 786 -62 922 -62 l 596 -62 q 496 -53 532 -62 q 445 -19 460 -43 q 431 49 431 6 l 431 849 z "},"情":{"ha":1389,"x_min":39,"x_max":1349,"o":"m 585 556 l 585 601 l 585 601 l 681 556 l 1144 556 l 1144 515 l 674 515 l 674 -74 q 663 -86 674 -78 q 635 -100 651 -94 q 600 -106 618 -106 l 585 -106 l 585 556 m 492 1021 l 1147 1021 l 1211 1099 q 1222 1089 1211 1099 q 1251 1065 1233 1079 q 1289 1034 1269 1051 q 1325 1001 1308 1017 q 1288 979 1319 979 l 503 979 l 492 1021 m 551 867 l 1113 867 l 1171 940 q 1190 925 1171 940 q 1235 888 1208 910 q 1281 847 1261 867 q 1246 825 1275 825 l 563 825 l 551 867 m 454 701 l 1172 701 l 1233 781 q 1245 771 1233 781 q 1274 747 1257 761 q 1312 715 1292 732 q 1349 683 1332 699 q 1313 661 1343 661 l 465 661 l 454 701 m 838 1158 l 972 1146 q 960 1123 971 1132 q 926 1110 950 1114 l 926 685 l 838 685 l 838 1158 m 1111 556 l 1097 556 l 1143 613 l 1260 526 q 1238 510 1254 518 q 1200 499 1222 503 l 1200 21 q 1192 -40 1200 -14 q 1156 -83 1183 -67 q 1069 -106 1129 -99 q 1063 -67 1068 -85 q 1044 -39 1057 -50 q 1011 -20 1033 -28 q 950 -8 989 -12 l 950 14 q 967 13 950 14 q 1008 10 985 13 q 1053 7 1032 8 q 1083 6 1074 6 q 1106 12 1100 6 q 1111 33 1111 18 l 1111 556 m 643 392 l 1142 392 l 1142 350 l 643 350 l 643 392 m 643 222 l 1142 222 l 1142 182 l 643 182 l 643 222 m 256 1164 l 393 1150 q 380 1126 390 1136 q 343 1111 369 1115 l 343 -75 q 333 -89 343 -81 q 306 -103 322 -97 q 274 -108 290 -108 l 256 -108 l 256 1164 m 144 914 l 169 914 q 183 722 196 804 q 144 603 171 640 q 98 568 128 578 q 51 578 68 558 q 45 617 39 596 q 68 657 51 638 q 106 720 88 679 q 135 813 124 761 q 144 914 146 865 m 383 961 q 476 885 446 924 q 511 813 506 846 q 506 757 517 779 q 474 731 494 735 q 432 749 454 728 q 410 856 432 799 q 365 953 389 914 l 383 961 z "},"愛":{"ha":1389,"x_min":68,"x_max":1336,"o":"m 217 842 l 1263 842 l 1263 801 l 217 801 l 217 842 m 211 907 l 236 907 q 249 789 256 840 q 224 703 243 738 q 178 653 204 669 q 126 636 154 636 q 86 658 97 636 q 88 697 78 679 q 119 728 99 715 q 185 798 157 749 q 211 907 214 847 m 1188 842 l 1172 842 l 1231 900 l 1336 799 q 1315 790 1328 792 q 1282 786 1301 788 q 1208 727 1253 760 q 1126 676 1163 694 l 1108 688 q 1136 735 1121 707 q 1166 792 1151 764 q 1188 842 1181 821 m 333 1021 q 423 978 390 1001 q 469 932 456 956 q 481 888 482 908 q 469 855 479 868 q 440 841 458 842 q 404 856 422 840 q 372 938 399 894 q 319 1010 346 982 l 333 1021 m 615 1038 q 700 989 669 1015 q 743 937 731 963 q 752 890 756 911 q 737 856 749 868 q 708 844 725 844 q 671 861 690 844 q 645 949 667 901 q 599 1029 624 997 l 615 1038 m 1010 1042 l 1143 986 q 1124 969 1138 975 q 1089 967 1110 964 q 1008 889 1057 931 q 910 814 960 847 l 881 814 q 951 924 915 860 q 1010 1042 988 988 m 1124 1165 l 1215 1071 q 1185 1064 1204 1063 q 1143 1076 1167 1065 q 932 1055 1047 1065 q 691 1037 817 1044 q 437 1025 565 1029 q 185 1021 308 1021 l 181 1050 q 431 1068 300 1056 q 690 1096 563 1081 q 930 1129 818 1111 q 1124 1165 1042 1147 m 500 353 l 993 353 l 993 314 l 461 314 l 500 353 m 946 353 l 929 353 l 993 408 l 1088 317 q 1025 300 1074 303 q 788 101 928 183 q 469 -33 649 18 q 76 -108 290 -85 l 68 -83 q 434 8 264 -50 q 736 152 604 67 q 946 353 868 238 m 500 319 q 638 181 554 239 q 831 83 722 122 q 1067 21 940 43 q 1332 -11 1193 -1 l 1331 -26 q 1281 -55 1301 -33 q 1254 -110 1261 -76 q 922 -36 1072 -83 q 660 94 772 11 q 479 304 549 176 l 500 319 m 469 739 l 589 725 q 550 693 586 700 l 550 554 q 558 538 550 542 q 604 533 567 533 l 742 533 q 823 533 788 533 q 871 535 858 533 q 888 538 882 536 q 896 546 893 540 q 913 583 904 557 q 931 640 922 608 l 947 640 l 950 544 q 979 531 972 538 q 986 513 986 524 q 969 482 986 493 q 898 466 951 471 q 739 461 844 461 l 589 461 q 513 469 539 461 q 478 493 486 476 q 469 540 469 510 l 469 739 m 354 721 l 379 721 q 378 611 392 657 q 340 535 365 565 q 288 492 315 506 q 233 479 263 478 q 194 503 204 481 q 197 540 186 522 q 229 568 208 557 q 310 624 271 583 q 354 721 350 665 m 953 724 q 1088 680 1036 707 q 1169 622 1140 653 q 1205 565 1197 592 q 1205 517 1213 538 q 1179 492 1197 497 q 1135 500 1161 488 q 1090 578 1122 539 q 1018 652 1058 617 q 940 710 978 688 l 953 724 m 611 767 q 725 747 681 763 q 792 710 769 732 q 823 667 815 689 q 824 630 831 646 q 800 608 817 614 q 761 613 783 603 q 722 665 749 639 q 663 715 694 692 q 600 753 631 738 l 611 767 m 553 478 l 669 418 q 619 408 658 399 q 486 274 568 340 q 305 152 404 207 q 101 61 206 97 l 89 82 q 271 190 182 126 q 434 329 360 254 q 553 478 508 404 z "},"感":{"ha":1389,"x_min":57,"x_max":1329,"o":"m 961 1164 q 1061 1147 1022 1161 q 1119 1113 1100 1132 q 1140 1076 1138 1094 q 1134 1044 1143 1057 q 1108 1027 1125 1031 q 1069 1035 1090 1024 q 1019 1099 1054 1065 q 949 1151 983 1132 l 961 1164 m 1103 888 l 1236 835 q 1217 815 1231 822 q 1181 811 1204 808 q 992 516 1107 635 q 738 331 876 397 l 721 347 q 944 566 842 428 q 1103 888 1047 704 m 315 835 l 636 835 l 694 908 q 706 899 694 908 q 733 876 717 890 q 769 847 750 863 q 801 817 788 831 q 767 794 796 794 l 326 794 l 315 835 m 783 1171 l 921 1157 q 910 1134 919 1144 q 876 1121 900 1124 q 897 920 879 1022 q 953 723 915 818 q 1050 547 990 628 q 1197 414 1110 467 q 1222 402 1213 401 q 1238 418 1231 403 q 1262 476 1247 439 q 1288 550 1276 514 l 1306 546 l 1286 375 q 1322 327 1315 343 q 1318 299 1328 311 q 1277 278 1304 278 q 1217 294 1250 279 q 1156 328 1185 308 q 943 549 1024 418 q 825 838 863 679 q 783 1171 788 996 m 353 688 l 353 726 l 353 726 l 444 688 l 700 688 l 700 646 l 439 646 l 439 397 q 428 387 439 393 q 400 375 417 381 q 365 369 383 369 l 353 369 l 353 688 m 388 489 l 690 489 l 690 449 l 388 449 l 388 489 m 649 688 l 635 688 l 682 738 l 790 658 q 768 642 785 650 q 733 631 751 635 l 733 426 q 721 415 733 422 q 692 403 708 408 q 661 399 676 399 l 649 399 l 649 688 m 215 999 l 1161 999 l 1222 1078 q 1240 1062 1222 1078 q 1284 1023 1258 1046 q 1329 979 1310 1000 q 1293 958 1325 958 l 215 958 l 215 999 m 179 999 l 179 1013 l 179 1044 l 283 999 l 267 999 l 267 785 q 262 654 267 724 q 238 513 257 585 q 181 373 219 440 q 76 247 142 306 l 57 264 q 140 428 114 342 q 172 606 165 515 q 179 783 179 696 l 179 999 m 594 322 q 728 284 675 308 q 809 232 781 260 q 846 178 838 204 q 847 132 854 151 q 822 106 840 113 q 778 113 804 100 q 731 185 764 147 q 658 255 699 222 q 581 308 618 288 l 594 322 m 1036 269 q 1191 198 1131 238 q 1283 118 1251 158 q 1322 43 1314 78 q 1320 -15 1329 8 q 1290 -44 1311 -37 q 1240 -32 1268 -50 q 1192 71 1228 17 q 1110 174 1156 125 q 1021 257 1065 222 l 1036 269 m 425 288 l 556 274 q 544 253 554 263 q 515 240 533 243 l 515 24 q 526 5 515 10 q 582 0 536 0 l 757 0 q 860 0 817 0 q 919 1 903 0 q 940 6 935 3 q 950 19 946 10 q 969 74 958 35 q 992 164 979 113 l 1010 164 l 1013 14 q 1044 -1 1036 7 q 1053 -24 1053 -10 q 1042 -50 1053 -39 q 999 -68 1031 -61 q 908 -78 967 -75 q 753 -81 849 -81 l 569 -81 q 478 -74 508 -81 q 436 -47 447 -67 q 425 8 425 -26 l 425 288 m 268 261 l 292 261 q 293 120 307 181 q 251 20 279 60 q 193 -39 222 -19 q 154 -55 175 -50 q 116 -56 133 -60 q 90 -35 99 -51 q 92 5 81 -15 q 125 39 104 25 q 188 88 157 56 q 242 165 219 121 q 268 261 264 210 z "},"抱":{"ha":1389,"x_min":35,"x_max":1333,"o":"m 700 1167 l 843 1119 q 825 1099 838 1107 q 790 1093 813 1092 q 643 820 729 942 q 453 622 557 699 l 433 636 q 539 781 489 697 q 631 963 589 864 q 700 1167 672 1061 m 682 964 l 1224 964 l 1224 922 l 664 922 l 682 964 m 1188 964 l 1174 964 l 1224 1019 l 1329 933 q 1308 919 1322 925 q 1272 911 1294 914 q 1261 635 1268 753 q 1243 435 1254 517 q 1216 302 1232 353 q 1178 228 1200 251 q 1117 188 1153 200 q 1043 175 1082 175 q 1040 212 1043 194 q 1025 240 1036 229 q 983 258 1011 250 q 925 271 956 267 l 926 297 q 977 292 949 294 q 1030 288 1006 289 q 1067 286 1054 286 q 1096 290 1086 286 q 1115 301 1106 293 q 1150 402 1136 324 q 1174 620 1164 481 q 1188 964 1183 760 m 579 747 l 938 747 l 938 706 l 592 706 l 579 747 m 892 747 l 879 747 l 926 797 l 1031 718 q 1011 705 1025 713 q 979 693 997 697 l 979 386 q 966 375 979 382 q 936 363 953 368 q 906 358 919 358 l 892 358 l 892 747 m 597 471 l 933 471 l 933 431 l 597 431 l 597 471 m 549 471 l 549 514 l 549 517 l 654 471 l 638 471 l 638 46 q 643 24 638 32 q 668 14 649 17 q 731 11 688 11 l 964 11 q 1100 12 1042 11 q 1181 14 1158 13 q 1206 19 1199 15 q 1221 32 1214 22 q 1241 88 1229 49 q 1265 182 1253 126 l 1282 182 l 1286 28 q 1324 12 1314 21 q 1333 -11 1333 3 q 1319 -40 1333 -29 q 1267 -58 1306 -51 q 1154 -68 1228 -65 q 961 -71 1081 -71 l 724 -71 q 615 -62 653 -71 q 563 -32 578 -54 q 549 31 549 -10 l 549 471 m 57 846 l 378 846 l 433 925 q 444 916 433 925 q 470 892 454 907 q 503 860 486 876 q 535 828 521 843 q 501 806 531 806 l 68 806 l 57 846 m 261 1164 l 400 1149 q 385 1124 397 1135 q 349 1111 374 1114 l 349 24 q 340 -40 349 -12 q 304 -85 332 -68 q 217 -110 276 -101 q 208 -70 214 -87 q 189 -42 201 -53 q 151 -22 175 -29 q 86 -10 126 -15 l 86 13 q 105 11 86 13 q 149 8 124 10 q 199 6 175 7 q 231 4 222 4 q 256 10 250 4 q 261 32 261 17 l 261 1164 m 35 439 q 153 472 76 449 q 326 528 229 496 q 524 596 422 561 l 531 575 q 354 479 458 535 q 114 358 250 424 q 85 324 107 331 l 35 439 z "},"掻":{"ha":1389,"x_min":36,"x_max":1354,"o":"m 463 31 q 644 36 529 32 q 907 48 760 40 q 1213 64 1054 56 l 1213 39 q 933 -4 1096 19 q 547 -54 771 -28 q 532 -74 542 -67 q 513 -83 522 -82 l 463 31 m 522 1088 l 1168 1088 l 1168 1047 l 535 1047 l 522 1088 m 1106 1088 l 1092 1088 l 1156 1144 l 1256 1051 q 1196 1035 1242 1038 q 908 771 1093 874 q 464 622 722 668 l 454 646 q 735 749 607 686 q 958 897 863 813 q 1106 1088 1053 982 m 676 1088 q 784 943 717 1006 q 939 835 851 881 q 1131 760 1026 790 q 1354 715 1236 731 l 1351 700 q 1307 676 1325 696 q 1281 628 1289 657 q 1006 718 1128 661 q 795 862 883 775 q 653 1072 707 949 l 676 1088 m 572 539 l 572 581 l 572 581 l 665 539 l 1188 539 l 1188 499 l 658 499 l 658 201 q 647 191 658 197 q 619 179 636 185 q 585 174 603 174 l 572 174 l 572 539 m 1135 539 l 1122 539 l 1168 588 l 1269 510 q 1251 497 1264 504 q 1221 488 1238 490 l 1221 235 q 1208 223 1221 231 q 1179 210 1196 215 q 1146 204 1163 204 l 1135 204 l 1135 539 m 607 294 l 1179 294 l 1179 254 l 607 254 l 607 294 m 853 696 l 985 682 q 974 660 983 669 q 940 647 964 651 l 940 15 l 853 8 l 853 696 m 1078 178 q 1209 108 1158 144 q 1285 36 1260 72 q 1315 -31 1310 0 q 1311 -80 1321 -61 q 1282 -103 1301 -99 q 1239 -90 1263 -108 q 1200 -1 1229 -47 q 1134 90 1171 46 q 1063 167 1097 135 l 1078 178 m 57 846 l 399 846 l 456 924 q 474 908 456 924 q 517 871 492 893 q 560 828 542 849 q 524 806 554 806 l 68 806 l 57 846 m 265 1164 l 404 1149 q 390 1124 401 1135 q 353 1111 378 1114 l 353 25 q 344 -40 353 -12 q 308 -83 336 -67 q 219 -108 279 -100 q 210 -69 217 -86 q 192 -40 204 -51 q 153 -21 178 -28 q 89 -8 129 -14 l 89 14 q 108 13 89 14 q 152 10 126 11 q 202 7 178 8 q 235 6 226 6 q 259 11 253 6 q 265 33 265 17 l 265 1164 m 36 436 q 158 472 78 447 q 338 529 238 496 q 546 599 439 563 l 553 578 q 363 478 474 536 q 110 353 253 421 q 99 331 107 340 q 81 318 90 321 l 36 436 z "},"斬":{"ha":1389,"x_min":54,"x_max":1339,"o":"m 750 1035 l 868 994 q 839 978 863 982 l 839 579 q 832 401 839 493 q 803 219 825 310 q 733 46 781 129 q 606 -106 686 -37 l 585 -90 q 695 114 660 6 q 740 340 731 222 q 750 579 750 458 l 750 1035 m 793 682 l 1154 682 l 1219 764 q 1231 755 1219 764 q 1262 730 1243 746 q 1301 697 1281 714 q 1339 664 1322 679 q 1303 642 1335 642 l 793 642 l 793 682 m 1185 1161 l 1307 1065 q 1279 1055 1297 1056 q 1236 1061 1261 1054 q 1113 1024 1183 1043 q 964 989 1043 1006 q 807 964 885 972 l 801 985 q 942 1037 869 1007 q 1080 1100 1015 1067 q 1185 1161 1144 1133 m 1063 682 l 1154 682 l 1154 -85 q 1133 -98 1154 -87 q 1078 -108 1113 -108 l 1063 -108 l 1063 682 m 64 978 l 513 978 l 575 1058 q 594 1042 575 1058 q 641 1003 614 1026 q 690 960 668 981 q 653 938 685 938 l 75 938 l 64 978 m 154 622 l 581 622 l 581 582 l 154 582 l 154 622 m 154 421 l 582 421 l 582 381 l 154 381 l 154 421 m 54 221 l 532 221 l 596 299 q 608 290 596 299 q 637 266 619 281 q 674 234 654 251 q 710 201 694 217 q 675 179 704 179 l 65 179 l 54 221 m 331 794 l 413 794 l 413 401 l 400 400 l 415 399 l 415 -79 q 395 -95 415 -83 q 340 -107 375 -107 l 326 -107 l 326 399 l 343 400 l 331 401 l 331 794 m 326 1164 l 461 1151 q 449 1128 460 1138 q 415 1114 439 1118 l 415 796 l 326 796 l 326 1164 m 117 814 l 117 856 l 117 856 l 206 814 l 583 814 l 583 774 l 199 774 l 199 339 q 188 329 199 336 q 163 317 178 322 q 131 313 147 313 l 117 313 l 117 814 m 540 814 l 526 814 l 574 864 l 676 785 q 656 772 671 779 q 622 761 642 764 l 622 356 q 610 344 622 351 q 583 331 599 338 q 553 325 567 325 l 540 325 l 540 814 z "},"星":{"ha":1389,"x_min":60,"x_max":1331,"o":"m 332 888 l 1068 888 l 1068 847 l 332 847 l 332 888 m 332 690 l 1068 690 l 1068 650 l 332 650 l 332 690 m 1025 1079 l 1011 1079 l 1061 1138 l 1176 1050 q 1154 1034 1169 1042 q 1118 1022 1139 1026 l 1118 619 q 1104 608 1118 615 q 1072 596 1090 601 q 1039 590 1054 590 l 1025 590 l 1025 1079 m 290 1079 l 290 1126 l 290 1126 l 390 1079 l 1079 1079 l 1079 1040 l 383 1040 l 383 608 q 372 597 383 604 q 342 584 360 590 q 306 578 325 578 l 290 578 l 290 1079 m 60 -32 l 1139 -32 l 1207 56 q 1219 46 1207 56 q 1251 20 1232 36 q 1291 -14 1269 4 q 1331 -50 1313 -32 q 1293 -72 1325 -72 l 72 -72 l 60 -32 m 257 218 l 1024 218 l 1086 300 q 1098 290 1086 300 q 1128 265 1110 281 q 1167 233 1147 250 q 1204 200 1188 215 q 1167 178 1199 178 l 268 178 l 257 218 m 663 610 l 806 594 q 792 570 804 581 q 756 556 781 560 l 756 -49 l 663 -49 l 663 610 m 388 614 l 521 556 q 502 539 515 546 q 467 536 489 532 q 319 333 404 422 q 142 190 235 244 l 125 207 q 270 382 200 274 q 388 614 340 490 m 318 436 l 1051 436 l 1117 518 q 1129 508 1117 518 q 1160 484 1142 499 q 1198 451 1178 469 q 1235 417 1218 433 q 1197 396 1229 396 l 318 396 l 318 436 z "},"朽":{"ha":1389,"x_min":51,"x_max":1340,"o":"m 557 1051 l 1160 1051 l 1225 1132 q 1237 1123 1225 1132 q 1266 1098 1249 1114 q 1303 1065 1283 1082 q 1340 1033 1324 1049 q 1306 1011 1336 1011 l 568 1011 l 557 1051 m 1156 675 l 1139 675 l 1197 736 l 1308 643 q 1250 621 1290 625 q 1226 298 1243 436 q 1184 73 1208 160 q 1125 -46 1160 -14 q 1054 -90 1094 -76 q 965 -104 1014 -104 q 960 -62 965 -82 q 939 -32 954 -43 q 885 -10 924 -21 q 803 8 846 1 l 804 32 q 874 26 835 29 q 949 20 914 22 q 1000 18 985 18 q 1033 22 1021 18 q 1056 35 1044 25 q 1100 141 1081 57 q 1134 362 1119 225 q 1156 675 1149 499 m 754 675 l 1204 675 l 1204 633 l 746 633 l 754 675 m 799 1051 l 894 1051 q 866 924 883 999 q 827 767 849 849 q 785 612 806 686 q 749 486 764 538 q 706 475 733 476 q 647 483 679 474 q 679 577 661 521 q 715 699 697 633 q 750 830 733 764 q 779 954 767 896 q 799 1051 792 1013 m 63 840 l 444 840 l 507 919 q 526 904 507 919 q 572 865 546 889 q 619 821 599 842 q 585 799 615 799 l 74 799 l 63 840 m 281 840 l 378 840 l 378 818 q 263 484 339 642 q 72 201 186 326 l 51 218 q 152 407 108 304 q 228 620 196 510 q 281 840 261 731 m 296 1163 l 435 1147 q 422 1122 432 1132 q 385 1108 411 1113 l 385 -72 q 374 -86 385 -78 q 347 -100 363 -94 q 315 -106 332 -106 l 296 -106 l 296 1163 m 385 635 q 505 573 460 606 q 572 508 550 540 q 597 447 593 475 q 588 403 600 419 q 557 384 576 386 q 515 399 538 382 q 483 476 507 435 q 428 557 458 518 q 369 624 399 596 l 385 635 z "},"果":{"ha":1389,"x_min":46,"x_max":1342,"o":"m 64 424 l 1128 424 l 1199 511 q 1211 501 1199 511 q 1244 476 1224 492 q 1288 441 1265 460 q 1329 406 1310 422 q 1316 389 1326 394 q 1290 383 1306 383 l 76 383 l 64 424 m 583 424 l 692 424 l 692 403 q 425 131 589 251 q 58 -68 261 11 l 46 -46 q 260 86 160 11 q 444 248 361 161 q 583 424 528 335 m 753 424 q 865 296 799 357 q 1011 183 932 235 q 1175 93 1090 132 q 1342 31 1260 54 l 1339 14 q 1289 -8 1311 11 q 1257 -61 1267 -28 q 1053 54 1153 -15 q 871 214 954 124 q 732 411 788 304 l 753 424 m 644 1086 l 735 1086 l 735 -78 q 715 -97 735 -85 q 658 -108 694 -108 l 644 -108 l 644 1086 m 246 1086 l 246 1132 l 246 1132 l 344 1086 l 1085 1086 l 1085 1046 l 336 1046 l 336 550 q 325 538 336 546 q 297 525 314 531 q 261 519 281 519 l 246 519 l 246 1086 m 1050 1086 l 1038 1086 l 1086 1140 l 1194 1057 q 1174 1044 1189 1051 q 1142 1033 1160 1036 l 1142 564 q 1128 552 1142 560 q 1098 538 1115 544 q 1064 532 1081 532 l 1050 532 l 1050 1086 m 296 863 l 1093 863 l 1093 821 l 296 821 l 296 863 m 296 632 l 1093 632 l 1093 592 l 296 592 l 296 632 z "},"模":{"ha":1389,"x_min":38,"x_max":1365,"o":"m 54 846 l 397 846 l 458 925 q 477 910 458 925 q 522 871 496 894 q 569 826 549 847 q 533 804 564 804 l 65 804 l 54 846 m 254 836 l 347 836 l 347 814 q 243 482 314 636 q 57 201 172 328 l 38 219 q 138 406 94 306 q 209 616 181 507 q 254 836 238 725 m 265 1163 l 404 1147 q 391 1122 401 1132 q 354 1108 381 1113 l 354 -74 q 344 -87 354 -79 q 317 -101 333 -96 q 283 -107 300 -107 l 265 -107 l 265 1163 m 354 651 q 458 588 419 619 q 515 525 497 556 q 535 469 533 494 q 526 431 536 444 q 498 415 515 417 q 460 428 481 413 q 431 501 451 463 q 385 576 410 539 q 339 643 361 614 l 354 651 m 456 272 l 1154 272 l 1217 353 q 1228 343 1217 353 q 1258 319 1240 333 q 1297 287 1276 304 q 1333 253 1317 269 q 1296 232 1328 232 l 467 232 l 456 272 m 499 1008 l 1161 1008 l 1221 1083 q 1240 1068 1221 1083 q 1284 1032 1258 1053 q 1329 990 1310 1011 q 1293 968 1325 968 l 510 968 l 499 1008 m 621 642 l 1174 642 l 1174 600 l 621 600 l 621 642 m 621 471 l 1174 471 l 1174 429 l 621 429 l 621 471 m 943 260 q 1008 156 961 206 q 1141 65 1054 106 q 1365 -6 1228 24 l 1363 -21 q 1303 -45 1325 -28 q 1276 -104 1282 -62 q 1081 -8 1153 -67 q 972 119 1008 51 q 919 251 936 188 l 943 260 m 715 1157 l 853 1144 q 839 1119 850 1129 q 801 1106 828 1110 l 801 881 q 791 869 801 876 q 765 858 781 863 q 731 853 749 853 l 715 853 l 715 1157 m 996 1157 l 1133 1144 q 1119 1119 1131 1129 q 1082 1106 1108 1110 l 1082 885 q 1071 872 1082 879 q 1044 860 1060 865 q 1010 856 1028 856 l 996 856 l 996 1157 m 586 815 l 586 858 l 586 858 l 682 815 l 1186 815 l 1186 776 l 674 776 l 674 381 q 663 369 674 376 q 635 357 651 363 q 599 351 618 351 l 586 351 l 586 815 m 1124 815 l 1110 815 l 1158 869 l 1268 786 q 1247 772 1261 779 q 1211 760 1232 764 l 1211 403 q 1198 392 1211 399 q 1168 378 1185 385 q 1136 372 1151 372 l 1124 372 l 1124 815 m 839 449 l 940 449 q 926 300 936 369 q 889 171 915 231 q 806 60 863 111 q 655 -33 750 8 q 413 -108 560 -75 l 400 -86 q 604 -1 524 -46 q 731 95 685 44 q 800 202 778 146 q 829 319 822 258 q 839 449 836 381 z "},"消":{"ha":1389,"x_min":61,"x_max":1296,"o":"m 174 283 q 193 288 186 283 q 210 313 200 292 q 222 338 217 326 q 238 369 228 349 q 265 427 247 389 q 312 529 282 465 q 386 692 342 593 q 496 933 431 792 l 519 926 q 476 807 500 875 q 425 667 451 739 q 376 531 399 596 q 335 419 353 467 q 311 350 318 371 q 294 286 301 318 q 289 228 288 254 q 295 180 289 204 q 309 128 301 156 q 322 67 317 100 q 325 -10 326 33 q 303 -81 324 -54 q 246 -107 283 -107 q 215 -89 228 -107 q 200 -37 203 -71 q 210 91 210 33 q 203 186 211 149 q 181 235 196 224 q 150 248 167 244 q 111 253 133 251 l 111 283 q 124 283 111 283 q 151 283 136 283 q 174 283 167 283 m 74 839 q 195 810 149 831 q 266 765 242 790 q 296 715 290 739 q 292 672 301 690 q 263 649 282 654 q 217 657 243 643 q 181 719 207 688 q 122 779 154 751 q 61 826 90 807 l 74 839 m 183 1143 q 313 1108 263 1132 q 389 1057 363 1085 q 421 1003 415 1029 q 417 959 426 978 q 388 935 408 940 q 342 943 368 929 q 301 1012 329 976 q 239 1078 274 1047 q 171 1129 204 1108 l 183 1143 m 1132 733 l 1179 790 l 1296 703 q 1272 688 1289 696 q 1235 676 1256 679 l 1235 21 q 1226 -43 1235 -15 q 1188 -87 1217 -71 q 1097 -110 1160 -104 q 1090 -72 1096 -90 q 1071 -43 1083 -54 q 1030 -24 1056 -33 q 963 -11 1004 -15 l 963 11 q 981 10 963 11 q 1028 7 1000 8 q 1080 4 1056 6 q 1114 3 1104 3 q 1140 9 1133 3 q 1146 31 1146 15 l 1146 733 l 1132 733 m 1290 1040 q 1272 1025 1283 1029 q 1238 1025 1261 1021 q 1155 908 1206 975 q 1049 782 1104 840 l 1032 799 q 1083 901 1057 844 q 1129 1012 1108 957 q 1161 1107 1150 1067 l 1290 1040 m 979 1150 q 967 1127 978 1136 q 933 1114 957 1118 l 933 711 l 844 711 l 844 1164 l 979 1150 m 1185 279 l 1185 238 l 589 238 l 589 279 l 1185 279 m 1188 504 l 1188 464 l 592 464 l 592 504 l 1188 504 m 626 -74 q 617 -87 626 -79 q 590 -101 607 -94 q 553 -107 574 -107 l 539 -107 l 539 733 l 539 779 l 539 779 l 635 733 l 1194 733 l 1194 693 l 626 693 l 626 -74 m 528 1083 q 652 1013 604 1050 q 724 939 700 975 q 752 873 747 903 q 747 823 757 843 q 718 799 738 803 q 676 814 699 796 q 641 903 668 856 q 579 996 614 951 q 511 1072 544 1040 l 528 1083 z "},"温":{"ha":1389,"x_min":51,"x_max":1358,"o":"m 122 286 q 140 290 135 286 q 156 315 144 294 q 169 344 163 329 q 190 388 176 358 q 231 477 204 417 q 303 641 257 538 q 422 908 350 744 l 449 901 q 406 785 431 850 q 357 651 382 719 q 310 522 332 583 q 271 413 288 460 q 249 347 254 367 q 234 286 240 317 q 228 229 228 256 q 237 165 228 199 q 254 88 246 131 q 260 -12 263 44 q 240 -82 258 -57 q 189 -107 222 -107 q 160 -88 169 -107 q 149 -36 150 -69 q 158 93 158 35 q 151 189 158 151 q 128 236 143 226 q 98 249 114 244 q 60 254 82 253 l 60 286 q 72 286 60 286 q 100 286 85 286 q 122 286 115 286 m 161 1156 q 281 1119 235 1142 q 351 1069 328 1096 q 379 1017 375 1042 q 374 976 383 993 q 344 953 364 958 q 300 963 325 949 q 264 1028 289 994 q 208 1093 239 1063 q 147 1144 176 1124 l 161 1156 m 63 844 q 178 814 133 835 q 244 768 222 793 q 269 719 265 743 q 263 678 274 694 q 234 658 253 663 q 190 668 215 654 q 135 758 176 713 q 51 832 93 804 l 63 844 m 508 1081 l 508 1125 l 613 1081 l 1057 1081 l 1103 1135 l 1203 1057 q 1183 1044 1196 1050 q 1151 1035 1171 1038 l 1151 571 q 1129 556 1151 567 q 1076 544 1107 544 l 1063 544 l 1063 1040 l 596 1040 l 596 560 q 576 542 596 553 q 522 532 556 532 l 508 532 l 508 1081 m 553 871 l 1126 871 l 1126 829 l 553 829 l 553 871 m 553 657 l 1126 657 l 1126 615 l 553 615 l 553 657 m 297 -18 l 1208 -18 l 1261 63 q 1278 47 1261 63 q 1319 8 1296 31 q 1358 -36 1342 -15 q 1324 -57 1353 -57 l 308 -57 l 297 -18 m 668 426 l 746 426 l 746 -42 l 668 -42 l 668 426 m 885 426 l 964 426 l 964 -42 l 885 -42 l 885 426 m 440 439 l 440 483 l 542 439 l 1092 439 l 1139 501 l 1257 414 q 1235 397 1250 404 q 1194 388 1221 390 l 1194 -31 l 1107 -31 l 1107 399 l 526 399 l 526 -31 l 440 -31 l 440 439 z "},"痛":{"ha":1389,"x_min":36,"x_max":1331,"o":"m 456 856 l 1125 856 l 1125 814 l 468 814 l 456 856 m 1089 856 l 1072 856 l 1135 913 l 1239 813 q 1215 803 1229 806 q 1178 800 1201 801 q 1083 753 1140 778 q 964 708 1025 729 q 856 671 903 686 l 839 683 q 924 735 876 704 q 1018 799 972 767 q 1089 856 1064 831 m 461 578 l 461 621 l 461 621 l 556 578 l 1182 578 l 1182 536 l 549 536 l 549 -76 q 538 -89 549 -82 q 512 -102 528 -96 q 476 -108 496 -108 l 461 -108 l 461 578 m 1151 578 l 1139 578 l 1185 631 l 1296 549 q 1275 534 1290 542 q 1243 522 1260 526 l 1243 24 q 1235 -38 1243 -11 q 1199 -82 1226 -65 q 1113 -106 1171 -99 q 1106 -66 1111 -83 q 1090 -37 1101 -49 q 1056 -18 1078 -26 q 997 -6 1035 -10 l 997 18 q 1013 17 997 18 q 1052 13 1029 15 q 1096 10 1075 11 q 1125 10 1117 10 q 1147 15 1142 10 q 1151 36 1151 21 l 1151 578 m 803 578 l 889 578 l 889 -65 q 869 -81 889 -69 q 817 -92 849 -92 l 803 -92 l 803 578 m 510 392 l 1206 392 l 1206 351 l 510 351 l 510 392 m 510 200 l 1206 200 l 1206 160 l 510 160 l 510 200 m 651 753 q 806 729 746 747 q 901 688 867 711 q 946 642 935 665 q 951 601 957 618 q 929 576 946 583 q 889 576 913 568 q 793 651 860 607 q 644 731 726 696 l 651 753 m 724 1164 l 865 1151 q 853 1127 864 1136 q 817 1114 843 1118 l 817 986 l 724 986 l 724 1164 m 326 1011 l 1146 1011 l 1211 1092 q 1223 1082 1211 1092 q 1253 1058 1235 1072 q 1293 1026 1272 1043 q 1331 992 1314 1008 q 1294 969 1325 969 l 326 969 l 326 1011 m 279 1011 l 279 1025 l 279 1061 l 385 1011 l 368 1011 l 368 639 q 363 485 368 564 q 341 326 357 406 q 293 169 325 246 q 208 22 261 93 q 76 -108 156 -49 l 58 -93 q 201 129 154 10 q 263 377 247 249 q 279 638 279 506 l 279 1011 m 89 911 q 179 828 147 869 q 224 750 211 788 q 233 684 236 713 q 217 639 231 656 q 185 622 204 622 q 146 640 167 622 q 137 731 147 683 q 108 824 126 779 q 71 903 90 868 l 89 911 m 36 389 q 103 426 60 401 q 202 485 147 451 q 314 556 257 519 l 324 539 q 235 445 288 503 q 115 318 183 388 q 109 296 114 308 q 94 276 104 283 l 36 389 z "},"白":{"ha":1389,"x_min":218,"x_max":1250,"o":"m 218 893 l 218 942 l 218 942 l 319 893 l 1142 893 l 1142 853 l 310 853 l 310 -68 q 299 -82 310 -74 q 272 -97 289 -90 q 232 -104 254 -104 l 218 -104 l 218 893 m 1081 893 l 1064 893 l 1121 960 l 1250 861 q 1221 842 1240 851 q 1176 826 1201 832 l 1176 -62 q 1163 -76 1175 -67 q 1131 -92 1150 -85 q 1094 -99 1113 -99 l 1081 -99 l 1081 893 m 258 54 l 1138 54 l 1138 13 l 258 13 l 258 54 m 258 482 l 1138 482 l 1138 442 l 258 442 l 258 482 m 617 1167 l 772 1131 q 721 1101 765 1101 q 651 991 693 1053 q 567 876 610 929 l 536 876 q 566 969 551 918 q 594 1072 581 1019 q 617 1167 608 1124 z "},"瞬":{"ha":1389,"x_min":104,"x_max":1342,"o":"m 540 778 l 1238 778 l 1238 739 l 540 739 l 540 778 m 1181 1157 l 1274 1074 q 1249 1065 1265 1065 q 1208 1075 1232 1065 q 998 1038 1117 1056 q 749 1008 879 1019 q 490 994 618 996 l 485 1021 q 675 1043 576 1029 q 867 1076 774 1057 q 1042 1115 961 1094 q 1181 1157 1122 1136 m 596 982 q 674 932 646 958 q 712 881 701 906 q 719 837 722 857 q 705 805 717 817 q 676 794 693 793 q 640 810 658 794 q 617 897 636 851 q 579 974 597 943 l 596 982 m 535 399 q 626 353 594 379 q 665 303 657 328 q 664 262 672 279 q 638 240 656 244 q 600 253 619 236 q 570 325 594 288 q 518 388 546 363 l 535 399 m 799 1004 q 876 948 849 976 q 915 892 904 919 q 924 844 926 865 q 909 811 921 824 q 880 799 897 799 q 844 815 863 800 q 821 910 840 858 q 782 997 801 961 l 799 1004 m 1097 1017 l 1233 975 q 1217 957 1229 964 q 1181 951 1204 950 q 1101 849 1151 903 q 997 756 1050 796 l 968 756 q 1042 881 1007 808 q 1097 1017 1078 954 m 1199 778 l 1183 778 l 1239 835 l 1340 736 q 1321 727 1333 729 q 1289 724 1308 725 q 1233 668 1267 699 q 1169 615 1199 638 l 1151 626 q 1178 703 1164 657 q 1199 778 1193 749 m 829 531 l 1197 531 l 1242 590 q 1255 578 1242 590 q 1287 548 1268 565 q 1321 513 1306 531 q 1286 490 1315 490 l 840 490 l 829 531 m 749 219 l 1201 219 l 1250 290 q 1266 276 1250 290 q 1304 240 1282 261 q 1342 201 1326 219 q 1307 179 1338 179 l 760 179 l 749 219 m 879 529 l 956 529 l 956 199 l 879 199 l 879 529 m 1053 682 l 1169 669 q 1160 651 1168 658 q 1135 639 1153 643 l 1135 -81 q 1124 -92 1135 -85 q 1099 -103 1114 -99 q 1069 -108 1083 -108 l 1053 -108 l 1053 682 m 611 554 l 810 554 l 810 514 l 592 514 l 611 554 m 335 1054 l 322 1054 l 369 1110 l 475 1026 q 453 1010 469 1018 q 418 999 438 1003 l 418 58 q 406 46 418 53 q 378 32 394 39 q 346 25 361 25 l 335 25 l 335 1054 m 147 471 l 375 471 l 375 429 l 147 429 l 147 471 m 149 765 l 378 765 l 378 725 l 149 725 l 149 765 m 150 164 l 378 164 l 378 124 l 150 124 l 150 164 m 104 1054 l 104 1099 l 104 1099 l 192 1054 l 374 1054 l 374 1014 l 185 1014 l 185 -6 q 176 -19 185 -11 q 153 -33 168 -26 q 119 -39 138 -39 l 104 -39 l 104 1054 m 528 839 l 553 838 q 558 710 568 764 q 526 628 549 656 q 500 609 517 615 q 467 606 483 603 q 442 622 451 608 q 438 660 431 640 q 464 696 446 681 q 493 732 479 708 q 517 784 507 756 q 528 839 528 813 m 765 554 l 751 554 l 803 606 l 896 522 q 842 504 883 507 q 760 268 813 382 q 620 58 707 154 q 399 -108 533 -39 l 383 -87 q 574 89 497 -12 q 698 310 651 190 q 765 554 744 429 m 613 696 l 736 661 q 720 640 732 649 q 688 632 708 631 q 583 410 646 511 q 443 244 521 310 l 424 260 q 536 451 486 336 q 613 696 586 565 z "},"知":{"ha":1389,"x_min":54,"x_max":1325,"o":"m 218 918 l 521 918 l 586 996 q 606 981 586 996 q 653 944 625 967 q 703 899 681 921 q 667 878 700 878 l 196 878 l 218 918 m 60 576 l 564 576 l 626 657 q 638 647 626 657 q 669 623 650 638 q 708 591 688 608 q 744 557 728 574 q 708 535 739 535 l 71 535 l 60 576 m 357 918 l 446 918 l 446 643 q 438 492 446 571 q 409 332 431 413 q 347 174 388 251 q 240 25 307 96 q 72 -107 172 -46 l 54 -87 q 214 85 154 -4 q 304 269 274 175 q 346 457 335 363 q 357 642 357 551 l 357 918 m 239 1161 l 385 1124 q 369 1102 381 1111 q 335 1093 357 1093 q 227 844 292 958 q 81 654 163 731 l 60 668 q 135 807 100 728 q 197 976 169 886 q 239 1161 224 1067 m 396 388 q 548 297 489 343 q 638 209 607 251 q 676 132 668 167 q 676 75 685 97 q 647 49 667 53 q 601 63 626 44 q 549 169 586 113 q 466 281 511 226 q 379 376 421 336 l 396 388 m 814 106 l 1226 106 l 1226 64 l 814 64 l 814 106 m 1175 982 l 1161 982 l 1213 1042 l 1325 953 q 1302 937 1318 944 q 1265 924 1286 929 l 1265 -11 q 1252 -23 1265 -15 q 1222 -37 1239 -31 q 1188 -43 1204 -43 l 1175 -43 l 1175 982 m 772 982 l 772 1029 l 772 1029 l 868 982 l 1236 982 l 1236 942 l 863 942 l 863 -29 q 853 -43 863 -35 q 826 -58 843 -51 q 788 -64 810 -64 l 772 -64 l 772 982 z "},"自":{"ha":1389,"x_min":281,"x_max":1185,"o":"m 281 932 l 281 978 l 281 978 l 381 932 l 1083 932 l 1083 890 l 371 890 l 371 -71 q 361 -84 371 -76 q 335 -99 351 -92 q 297 -106 318 -106 l 281 -106 l 281 932 m 1032 932 l 1017 932 l 1069 992 l 1185 900 q 1162 884 1178 892 q 1125 871 1146 876 l 1125 -68 q 1111 -81 1124 -72 q 1081 -97 1099 -90 q 1044 -104 1063 -104 l 1032 -104 l 1032 932 m 325 638 l 1076 638 l 1076 597 l 325 597 l 325 638 m 325 336 l 1076 336 l 1076 297 l 325 297 l 325 336 m 325 31 l 1076 31 l 1076 -10 l 325 -10 l 325 31 m 638 1164 l 797 1136 q 782 1115 794 1124 q 746 1104 769 1106 q 683 1003 722 1058 q 601 904 644 949 l 574 904 q 599 986 588 940 q 622 1078 611 1032 q 638 1164 632 1124 z "},"虚":{"ha":1389,"x_min":56,"x_max":1335,"o":"m 588 414 l 719 400 q 708 377 718 386 q 675 364 699 368 l 675 -51 l 588 -51 l 588 414 m 831 414 l 963 400 q 951 377 961 386 q 917 364 940 368 l 917 -51 l 831 -51 l 831 414 m 218 -36 l 1143 -36 l 1211 47 q 1224 38 1211 47 q 1255 13 1236 28 q 1294 -19 1274 -1 q 1335 -54 1315 -37 q 1297 -76 1329 -76 l 231 -76 l 218 -36 m 363 349 q 458 265 424 307 q 507 187 493 224 q 520 121 521 150 q 507 75 519 92 q 476 58 494 58 q 438 76 457 57 q 421 166 436 118 q 385 260 406 214 q 344 342 365 307 l 363 349 m 1108 364 l 1236 308 q 1217 292 1231 299 q 1182 288 1203 285 q 1084 157 1138 222 q 979 46 1031 92 l 960 60 q 1008 147 983 97 q 1059 253 1033 197 q 1108 364 1085 310 m 632 1164 l 774 1150 q 760 1126 772 1136 q 722 1113 749 1115 l 722 858 l 632 858 l 632 1164 m 232 878 l 1217 878 l 1217 836 l 232 836 l 232 878 m 678 1021 l 999 1021 l 1067 1106 q 1079 1095 1067 1106 q 1111 1069 1092 1085 q 1152 1037 1131 1054 q 1190 1003 1174 1019 q 1179 986 1189 992 q 1156 981 1169 981 l 678 981 l 678 1021 m 194 878 l 194 890 l 194 924 l 300 878 l 283 878 l 283 583 q 278 418 283 506 q 252 241 272 331 q 190 67 232 151 q 75 -90 149 -18 l 56 -75 q 148 132 119 22 q 185 357 176 242 q 194 582 194 472 l 194 878 m 1179 878 l 1164 878 l 1221 935 l 1324 836 q 1302 826 1315 828 q 1269 822 1289 824 q 1224 779 1251 803 q 1169 733 1197 756 q 1118 693 1142 710 l 1099 704 q 1128 758 1113 726 q 1158 823 1143 790 q 1179 878 1172 856 m 594 817 l 722 801 q 712 783 721 792 q 682 771 703 774 l 682 561 q 693 542 682 547 q 749 538 704 538 l 922 538 q 1022 538 978 538 q 1082 539 1065 538 q 1103 543 1096 540 q 1114 551 1110 546 q 1133 592 1122 564 q 1153 657 1143 621 l 1168 657 l 1172 550 q 1206 535 1197 543 q 1215 515 1215 528 q 1193 483 1215 494 q 1108 467 1171 472 q 918 463 1044 463 l 738 463 q 646 470 676 463 q 605 497 615 478 q 594 549 594 515 l 594 817 m 318 644 l 903 704 l 957 786 q 978 773 957 786 q 1028 741 999 760 q 1079 704 1058 722 q 1049 679 1076 682 l 333 607 l 318 644 z "},"見":{"ha":1389,"x_min":61,"x_max":1329,"o":"m 347 399 l 1060 399 l 1060 358 l 347 358 l 347 399 m 347 631 l 1060 631 l 1060 590 l 347 590 l 347 631 m 347 860 l 1060 860 l 1060 819 l 347 819 l 347 860 m 1008 1083 l 994 1083 l 1046 1142 l 1158 1054 q 1135 1038 1151 1046 q 1099 1026 1119 1031 l 1099 318 q 1085 306 1099 313 q 1055 292 1072 299 q 1021 285 1038 285 l 1008 285 l 1008 1083 m 303 1083 l 303 1129 l 303 1129 l 400 1083 l 1072 1083 l 1072 1043 l 393 1043 l 393 303 q 382 290 393 297 q 354 276 371 282 q 318 271 338 271 l 303 271 l 303 1083 m 779 397 l 869 397 q 869 375 869 386 q 869 356 869 364 l 869 29 q 879 9 869 14 q 926 4 889 4 l 1067 4 q 1149 4 1114 4 q 1200 6 1185 4 q 1218 11 1213 7 q 1228 25 1224 15 q 1247 98 1236 44 q 1268 215 1257 151 l 1288 215 l 1290 18 q 1322 2 1314 11 q 1329 -19 1329 -7 q 1309 -53 1329 -40 q 1233 -72 1289 -67 q 1065 -78 1176 -78 l 913 -78 q 828 -70 857 -78 q 790 -42 800 -62 q 779 13 779 -22 l 779 397 m 522 381 l 625 381 q 544 136 607 232 q 366 -17 482 40 q 68 -106 250 -74 l 61 -83 q 315 19 219 -40 q 460 167 411 79 q 522 381 508 254 z "},"証":{"ha":1389,"x_min":50,"x_max":1346,"o":"m 603 1042 l 1139 1042 l 1203 1121 q 1215 1112 1203 1121 q 1244 1088 1226 1103 q 1282 1055 1263 1072 q 1318 1022 1301 1038 q 1282 1000 1314 1000 l 613 1000 l 603 1042 m 536 0 l 1163 0 l 1228 82 q 1240 73 1228 82 q 1270 48 1251 64 q 1310 15 1289 32 q 1346 -19 1331 -3 q 1310 -42 1342 -42 l 547 -42 l 536 0 m 914 1042 l 1001 1042 l 1001 -32 l 914 -32 l 914 1042 m 957 571 l 1128 571 l 1189 651 q 1200 642 1189 651 q 1229 617 1211 632 q 1266 585 1247 603 q 1301 551 1285 568 q 1265 529 1296 529 l 957 529 l 957 571 m 661 746 l 797 731 q 783 706 794 717 q 747 693 772 696 l 747 -17 l 661 -17 l 661 746 m 113 1068 l 360 1068 l 418 1143 q 437 1128 418 1143 q 481 1092 456 1113 q 526 1051 507 1071 q 492 1029 521 1029 l 124 1029 l 113 1068 m 117 718 l 381 718 l 436 786 q 453 772 436 786 q 493 738 469 758 q 535 699 517 718 q 501 678 531 678 l 128 678 l 117 718 m 117 540 l 381 540 l 436 610 q 453 595 436 610 q 493 560 469 581 q 535 521 517 540 q 501 500 531 500 l 128 500 l 117 540 m 50 894 l 435 894 l 494 969 q 513 955 494 969 q 558 918 532 940 q 604 876 583 896 q 569 854 600 854 l 61 854 l 50 894 m 119 361 l 119 404 l 119 404 l 211 361 l 465 361 l 465 321 l 204 321 l 204 -79 q 194 -90 204 -82 q 167 -103 183 -97 q 132 -108 150 -108 l 119 -108 l 119 361 m 414 361 l 401 361 l 450 415 l 558 332 q 535 317 551 325 q 500 306 519 310 l 500 -26 q 488 -37 500 -31 q 458 -50 475 -44 q 426 -56 442 -56 l 414 -56 l 414 361 m 163 58 l 456 58 l 456 18 l 163 18 l 163 58 z "},"足":{"ha":1389,"x_min":58,"x_max":1344,"o":"m 278 1071 l 278 1117 l 278 1117 l 376 1071 l 1072 1071 l 1072 1031 l 368 1031 l 368 614 q 357 603 368 610 q 329 590 346 596 q 293 585 313 585 l 278 585 l 278 1071 m 649 713 l 740 713 l 740 -11 l 649 15 l 649 713 m 696 396 l 1038 396 l 1104 479 q 1117 469 1104 479 q 1149 444 1129 460 q 1190 412 1168 429 q 1229 378 1211 394 q 1192 356 1225 356 l 696 356 l 696 396 m 368 339 q 466 172 410 236 q 598 74 522 108 q 774 28 674 40 q 1001 17 874 17 q 1076 17 1031 17 q 1170 17 1121 17 q 1265 17 1219 17 q 1344 19 1311 18 l 1344 0 q 1305 -25 1319 -6 q 1289 -72 1290 -44 q 1201 -72 1257 -72 q 1089 -72 1146 -72 q 994 -72 1032 -72 q 760 -56 863 -72 q 581 4 658 -39 q 447 126 504 47 q 347 328 390 204 l 368 339 m 332 515 l 478 486 q 460 464 474 472 q 425 454 447 456 q 365 250 406 354 q 253 52 324 146 q 74 -108 183 -42 l 58 -93 q 203 82 147 -19 q 290 297 258 183 q 332 515 321 410 m 1021 1071 l 1007 1071 l 1057 1128 l 1171 1042 q 1149 1025 1164 1033 q 1113 1013 1133 1017 l 1113 625 q 1099 613 1113 621 q 1067 600 1085 606 q 1035 594 1050 594 l 1021 594 l 1021 1071 m 314 713 l 1065 713 l 1065 672 l 314 672 l 314 713 z "},"跡":{"ha":1389,"x_min":39,"x_max":1346,"o":"m 869 1156 l 1007 1142 q 994 1117 1006 1128 q 957 1104 982 1107 l 957 881 l 869 881 l 869 1156 m 524 904 l 1161 904 l 1225 986 q 1237 976 1225 986 q 1267 952 1249 967 q 1306 920 1286 938 q 1343 886 1326 903 q 1307 864 1338 864 l 535 864 l 524 904 m 993 904 l 1078 904 l 1078 28 q 1069 -35 1078 -7 q 1033 -83 1061 -64 q 946 -110 1004 -103 q 938 -71 944 -89 q 919 -42 932 -53 q 880 -22 906 -29 q 811 -8 854 -14 l 811 13 q 831 11 811 13 q 877 8 850 10 q 928 6 904 7 q 963 4 953 4 q 987 10 981 4 q 993 31 993 17 l 993 904 m 617 692 l 751 660 q 736 638 747 646 q 701 628 725 629 q 620 417 671 514 q 500 254 569 319 l 479 267 q 565 458 529 347 q 617 692 601 568 m 1147 693 q 1263 574 1219 633 q 1325 463 1306 515 q 1345 371 1344 411 q 1333 306 1346 331 q 1300 279 1321 282 q 1254 300 1279 276 q 1235 431 1254 361 q 1187 567 1215 500 q 1128 685 1158 633 l 1147 693 m 779 904 l 871 904 q 865 633 869 760 q 841 399 860 507 q 778 199 822 292 q 652 30 733 107 q 443 -110 571 -47 l 424 -86 q 603 58 535 -19 q 708 227 671 136 q 759 423 744 318 q 776 648 774 528 q 779 904 779 768 m 164 1068 l 467 1068 l 467 1028 l 164 1028 l 164 1068 m 164 728 l 467 728 l 467 688 l 164 688 l 164 728 m 122 1068 l 122 1111 l 221 1068 l 204 1068 l 204 646 q 185 628 204 639 q 135 617 167 617 l 122 617 l 122 1068 m 425 1068 l 413 1068 l 460 1121 l 568 1039 q 545 1023 561 1031 q 510 1011 529 1015 l 510 665 q 497 654 510 661 q 469 642 485 647 q 438 638 453 638 l 425 638 l 425 1068 m 285 728 l 367 728 l 367 69 l 285 46 l 285 728 m 118 542 l 239 528 q 194 497 235 503 l 194 32 l 118 11 l 118 542 m 39 31 q 163 59 82 39 q 346 106 243 79 q 557 163 449 133 l 563 143 q 372 58 483 108 q 115 -51 261 7 q 85 -86 107 -78 l 39 31 m 311 442 l 399 442 l 454 521 q 472 505 454 521 q 513 467 489 489 q 554 424 536 444 q 519 403 550 403 l 311 403 l 311 442 z "}}}
